<mxfile host="65bd71144e">
    <diagram id="OxHW7RBCHBax6zKn-Pwx" name="Page-1">
        <mxGraphModel dx="2886" dy="1100" grid="1" gridSize="10" guides="1" tooltips="1" connect="1" arrows="1" fold="1" page="1" pageScale="1" pageWidth="850" pageHeight="1100" math="0" shadow="0">
            <root>
                <mxCell id="0"/>
                <mxCell id="1" parent="0"/>
                <mxCell id="2" value="" style="rounded=0;whiteSpace=wrap;html=1;" parent="1" vertex="1">
                    <mxGeometry x="180" y="210" width="760" height="570" as="geometry"/>
                </mxCell>
                <mxCell id="3" value="search bar" style="rounded=0;whiteSpace=wrap;html=1;" parent="1" vertex="1">
                    <mxGeometry x="280" y="220" width="340" height="40" as="geometry"/>
                </mxCell>
                <mxCell id="4" value="" style="shape=image;verticalLabelPosition=bottom;labelBackgroundColor=default;verticalAlign=top;aspect=fixed;imageAspect=0;image=data:image/png,iVBORw0KGgoAAAANSUhEUgAAAHUAAAB4CAYAAADMmr1iAAAAAXNSR0IArs4c6QAAAARnQU1BAACxjwv8YQUAAAAJcEhZcwAADsMAAA7DAcdvqGQAABBXSURBVHhe7Z3pbxVVH8d/bYEutGUxFNQCCikKmiLIIi5UrQvuYkHFN8blHzAm6svnjfrEhPjGQER4gc8rFUzUhEQwKiYPGAXBPGABcUlEomyVlm63vT3P+f7OnDtz586d7d47vXeYT3M6M2c/53f2OXNulZBQQqyoNq4JMSIRagxJhBpDEqHGkESoMSQRagwpUKhus6FkplQ63PM9mafGkKT5jSGJUGNIItQYkgg1hiRCjSEFCjWZ0owPyZTmsiNpfmNIEYWaVPhyoeDmVzvHpbq6yriX7XqVeW9F6wfB6kcY95WAkxjCprUoQoWqkn+MLR7adx2/oBG1Rk/fu/sBO9nm9jjg2eoFx9+iYX8uBW5h6vuwcSiKUPv7++nvv/+mvr5L8nnMMAFV1NTUSDNmtFBj42RZk9HaI7LK1A/wP50ek3730tmzZ2lgYIDGxnSUcwUIPWvm5JoDq34+O3Z0mBqreyt2v+z+62fzinyZPHmyzKcZ1NzczPpIwrgIdWxsjH7++WfasWMn7dv3X7pwoYf1rHGZNm0a3XrrrbRu3Tpqa2ujCRMmGCb+GBkZoYMHD9Inn3xChw4doosXLxpCVdHWLYSZiOzkZAvYCvS1nv1eY3djxerGjvZDmZtxzLavo1RTU01Tpkylm29eSl1dXdTevpj18gsVDl3MINRwjAlZO8Wrr74qrr32WlFXVydqampyVG1trWhtbRWvvfaaOHnypEin04Z7b2QBEd9//7149tlnxaxZs9gvpzAqVckaygr3SNtVV13FaT1y5EigfLITWqjI8D179ohVq1YJWftQdPIqRHzJkiVi165dYnh42PAhP/Abqre3V2zcuJELjSy1jn7HSSGfkNa3337bVz7lI9SUBs0Gmtk//viDzp07J/u8tGHijAyHzpw5w30imlNXpN+6uerr66NffvmFw4AfcQd5eu78eTp69KhnnroRWKjIXNXUV5EsTTQ6OspC9gLChEJ/6GoffhvdBewPDg5yGGEHDZVGWqb10qVLnOawBBKqri3qapWMD6lKTHf+7FtRQcdbsFkFN3gWZQhcU8PUGF0zq6qyg3NrUhGOHEDwaNl0V0BKKwDkB6Y3EydOpGo5+g1LCJdhMtba5KpC4SZQmEE1NjaRHBHyXFc3+Sa4z1bZBc6vmR2/Zu7mCM9/fIDSa2xsJDlYCjz1sxJCqPbI+EOlAYLUwszvj04wFixWr15NcuRMcspk6OsMU35aFVBmueb5zbReUDN3c42TGVS2mTKvr6+nxYsX05o1awoSaqDFB1hFBHDFSO29996jt956i3777TfDhjNwg9WS119/nZ566ikujRqY5QPhyGkN7d27lz766CM6cOAALz4EiHJFgCYXK0krVqzg/EFBxgqTW964EalQ33jjDXryySd9CxUgLExt/vzzT16KxGg4O8b26HtlhLYPe9Z7EM4MSVDZaLXrZWbmJYSKlmjmzJk0Z84camho8MwXNyIRKmhpaQkpVP6fCRMqjiAfINzq6hp5b+Z1GMIPsUJhjaS/CCNdOsHoZzAyjIuaNGlSRuEZaQwpxywiEaoucdZGIWzk4Ve2MgVfPLNSKjNMO056YYi0pmbH2Xer7wE8zZcZYc1Kib8wCxFwJEK1VNAMTnoJxSHimjoeNePyI6I+VV2xmJ9QesaxT00oFRH1qUkNjZJIa6rfkV9CYUTUp2phJjU2CiKuqeFBEy5410S2wuBL7aZwMlPLik5m+RXs+3WTz66p7xR+qYlo7beKWlrCL+gPDQ3R77//zttR//nnHw67EkDa9PvRBQsWZC3Ue6W7EMpeqHhD8/nnn9OOHTvo+PHjLODiCxVxMLNBp7EY1NbW0uzZs+nhhx+m9evX0xVXXGGYeKc9NBCqX2RmZq6jo6Ni8+bNvKUR3rgpGXnR0tIitm7dyts+4V4rNxDG7t27xUMPPSSam5sze2XhX2Uota+3vr5BrFy5Urz//n/E4OCQkW73tBdC2fapMm5cS/ft20c//PAD36fH0o59VPkq1acPDQ1Sd/cx+uqrL2X30WOksHSUpVCRIQCCPH36NO9+YD2lXXEg7gMD/XTq1CkeEyg9vpSEgEIN1wdoISn3/vyAG2xoTqVSFTMwcgO1FmnRm9ll88zXUhBQqIUWL7j354dOdCkTHy2qQEeRnkia36AJ0daxIwA77GpqsPdXZ4hV5SOfmVXfyQ+7uRUn+xo3MwV2NdTX1/FepFITaZ8qxWLceaHsTZkyhebPn8/TAF0wsstHrqDNAmQ+m3bk/8yzxmpHYd4rd3Yz9WzVU0rpmf5pd7giLZirTps2nfXMLqn4RCJUHX85HlQ3PkGpvuuuu6mz827+ztXMLGtGmvfqOdccqGdoKGW1I59y7FjNrc8a9Qx9aCoDqx2lr2oo5uXY/vnYY49Rc3MT65eSsl98wGLDjz/+SLt376HDhw9RT09PppTr+Oh7kPNsZLguUKY5/5cKz/oKlD0T7YPywxpfpzDs6Zk8uZEWLVpI9913Hwu2qckUqt1usYhEqHBj38yN9CBkPwnDqPH8+fP8SSOE7BRlraf9yzxbMhyY5nwxwIOOh9VA6WkT80ZhD8NuDjAumD59Oqff3p/6SXsoZMR8IwWZuQZZUYKyryhhRUX7FwS4qSQ1HoToUyGj4Miw5H+UTFU6s2uKf1C6K0mVBrfME9GNfs0E6giVKsGXA255VxVGqMGFYQrUujIUsqomeBLpPDWpndEQ0Tw1qZVREnFNTYiCSITqPApMmuJSEUKohTSliSCLQxlMaZI+tdi4VY6IpjTOKEEn8i4+kfaphdRYvQsCp6xh/Xd4aJjv1XM0SoeH3QuID9JTjq1QpAv6Qd7SmLESfKbhgQMH6ciR/xlHw45BO1Cjof3TwdmfnYAdqznSjQO78E70ppsW09KlS2nq1KnSTnE+6y8WkQgVqIM83pRCXW8IVeVCvszQ0frrr7/oww8/pI8//ph+/fVXWWOc39K4g0CCuskFweJIeWzKbmtbQOvWdUmFvbzqxXe+Aho5MoN8o9864Br0LY2sqWLr1m2it7cvy598wEw2deKDDz4Qt9xyi6idVJu1pxblEcp8Rjjms7aT79nu3k1lp0Xp1dXVi46ODvHZZ59xXrgkJXIim9LIjDBqmHbv7Q+2huJUbnxukRpJGbrSZcYf1aepZ2A+azv5nu3u3VQ2Sm94eIi/GPjuu+9oYGDQMCsPIh0oWVsnIZybKmtG4rx8vBzHgVjAOZPHB8QD8Tt79hwLuJyIZErjLAh34cCJbIJZlZMwNarlQRzVVwNe6YmSSGpqEKy1GvdalSPWOJYTkTa/QcGe36amZj4NrBwFi/1H2PppnnBaHoxjTc2fCTqDcLJme3s7fwqojnizu8GzVkEJ606B+SoOh9TH1pYTkQjV7A/NTPQq2BAgvu3s6FhNTzzxBF133XU8P9Tn+CmlzyrMPbNwwgSl7PqmmpBz1qHdvvXZaldt+1zEv7Vz22238RcE5dTlh1h8MAcxQRYfsKL05pv/NlaUcJat8ser2ZJzQPb/22+/pe7ubp7mqIGJQvZomGQYT8o/e5Kc9MKCGopVpBtuuIFWrlzJtRV65URkQg1/NKwa+eKnxy5e7KVUathTQDD28DYLv/YRLroBNLfoGqL63D8wMqJ5wSqJFJ5Ip8fEyMioGB5OiVRqRN6PCDl3FJs2bfL9JfmMGS3i3Xe3iAsXLrB7KOXXKPvvB6dVGx1H+d941ntu+dFGrhnutbI+y/+GUpj+mnrlimtNhcno6Aiv6Pz000/8eym6VMvE0TfffEO7du3iBXc3UIrxuQHOPFi+fDn3lZqGhsncP82fP49HuwmF4yFUQSdOnKB33nmH9u/fzyso0IOQ4Aqfusuax6/E3IB99Dv4dUZ8IGR9q4GmDD/w9/zzz/OPApRb/1SRQKj5SKfTYvv27UKOPPkQDTSjcBJUwZ2TW+jhoAs5ZRHbtm0TfX2XjJATCsF1SiPN+QcJ9IgTz2GAOye3Wh+1HR8/jVgW7RPC4ypUNJuzZs2yjPJKM8LDqgy+DMMcMKFwPIWKudiyZcvkNAR9oWFQRNCn4ndY0J+W28pMpeK5ojRv3jzasGEDfzhb7JqEOd+NN95Ijz++lj+dx893JBSOR01Vi9Z33HEHL4lhDRajU9UUhwfuoVpbW6mrax3dfvvtPOUp1N8EhUdNVZmPZbG1a9fSPffcy2cvFIIWKISI3zR78MEHZL8901iwNyzlA4MtY3BVTBU3PJtfACFgjfOZZzbw4gEGToWAxfFVq1bxQj1OX/GamyLfWQC4V1qsp5+UOd8yXmZ2QVoFbDerRDzXfrUxrlh82LlzJ23cuJGOHTtm/MpxsExAjbz++uvppZdekn3p41nH6TgB/6GwpQXH2mHfbdAwvcDbGKxH40VDMbqX8caXUJFIXGETWzY3b95E27dvl3PY03L+6v+3s+EP3ta88MKL9OKLL9DcuXM9aykKzokTx+nrr/fyb3X39WGp0vrxMgRQiJDVK75rrplLHR0dvJfXulBfkUCofsFi9uhoWhw+fFg8/fQGIfta36tMsCczS7p7Wuzfv9/z1/ERFla0uru7xSuvvCJk7RZyWiWkAIQcvBVR1fLRrVdf3SrkKF988cUXIpVKGbGoTAILFUo2w+LTTz8VctTKmewkRLvCMiP278rmm09ocUOH09/fL7Zs2SIWLVqUWab0W4iCKbVciTdJL7/8sjh16pQRk8rE10BJgyYJCosEmIZ0dXXJZusaHvi4ATeYDsE+Bkjov2TYrJxB01fFfSiaXCxVlvbbFeVvT88FfhuFI1wrmUBCtYKlvUcffZTuvVdNc7TAc6niF8oPPPAg3X//Gu5T89tVaCN8lATBer0FKhaydeCX8XjFWMmEEioEglEsBjrYyeA2zZk0aSLv4+nqwvRlXtbAyE2wqvaYP4LrbrdwdAuA8KBK0yJEQ+iaCiDYJUuWkhz8UFtbW04zjPem0MdqFHbd4SW4l3CseQn/4WepBapQYaDQqXREEWZpKEioyOyGhnrq7LyHT8i88sorWRDaDIdMoh+98847uQn2A+Snawl+bB3NdaGLHd6o7gDCxNsifKoYSTkqEQUJFSAzZs5s4dUhvG1BXws91MrOzk565JFHeI3Xaz7qBAoCTt7EYgVeJsDfYislUNTQah7MIbzZs1tVBCqUmn9JjPvA6BqFzMH6MEa1Z86c4dWf5ctX0HPPPSevyzLNrspEb7RdFAQMwmpr6+SgaZBXk6CPxYLiKHVSdnPzFFq4cCEXTKxx683jlYrnipIX2jmuGKni0z5sGcWaLvpRPTIOi5yu8sa2o0eP0MmTJ6m3ty8zeALaa0TDHgziZA1bxVXVTBNM0Wq5NWlvX0xz5syOsB8vDQULFVN3OU7lW2RDamSEl/aQMVCFl3h8ta5++UKdtVD8L8z0gEw38eDyFqoBvNEZYfWy8MzB1Ma45WKj0N5qM/NZadjj4haP3Cyw1+bKomhCrXT8CL9SSIQaQyp3iJeQl0SoMSQRagxJhBpDEqHGkESoMSQRagxJhBpDEqHGkESoMSQRagxJhBpDEqHGDqL/A8HhL4HyrOz6AAAAAElFTkSuQmCC;" parent="1" vertex="1">
                    <mxGeometry x="890" y="220" width="37" height="37.95" as="geometry"/>
                </mxCell>
                <mxCell id="6" value="" style="rounded=0;whiteSpace=wrap;html=1;" parent="1" vertex="1">
                    <mxGeometry x="180" y="210" width="80" height="570" as="geometry"/>
                </mxCell>
                <mxCell id="7" value="list1" style="rounded=0;whiteSpace=wrap;html=1;" parent="1" vertex="1">
                    <mxGeometry x="190" y="220" width="60" height="60" as="geometry"/>
                </mxCell>
                <mxCell id="8" value="list2" style="rounded=0;whiteSpace=wrap;html=1;" parent="1" vertex="1">
                    <mxGeometry x="190" y="290" width="60" height="60" as="geometry"/>
                </mxCell>
                <mxCell id="9" value="list3" style="rounded=0;whiteSpace=wrap;html=1;" parent="1" vertex="1">
                    <mxGeometry x="190" y="360" width="60" height="60" as="geometry"/>
                </mxCell>
                <mxCell id="10" value="list4" style="rounded=0;whiteSpace=wrap;html=1;" parent="1" vertex="1">
                    <mxGeometry x="190" y="430" width="60" height="60" as="geometry"/>
                </mxCell>
                <mxCell id="14" value="" style="group" parent="1" vertex="1" connectable="0">
                    <mxGeometry x="280" y="300" width="640" height="40" as="geometry"/>
                </mxCell>
                <mxCell id="5" value="" style="rounded=0;whiteSpace=wrap;html=1;" parent="14" vertex="1">
                    <mxGeometry width="640" height="40" as="geometry"/>
                </mxCell>
                <mxCell id="11" value="Item title" style="text;html=1;align=center;verticalAlign=middle;resizable=0;points=[];autosize=1;strokeColor=none;fillColor=none;" parent="14" vertex="1">
                    <mxGeometry y="5" width="70" height="30" as="geometry"/>
                </mxCell>
                <mxCell id="12" value="tags, more tags" style="text;html=1;align=center;verticalAlign=middle;resizable=0;points=[];autosize=1;strokeColor=none;fillColor=none;" parent="14" vertex="1">
                    <mxGeometry x="330" y="5" width="110" height="30" as="geometry"/>
                </mxCell>
                <mxCell id="13" value="1/10" style="text;html=1;align=center;verticalAlign=middle;resizable=0;points=[];autosize=1;strokeColor=none;fillColor=none;" parent="14" vertex="1">
                    <mxGeometry x="590" y="5" width="50" height="30" as="geometry"/>
                </mxCell>
                <mxCell id="15" value="" style="group" parent="1" vertex="1" connectable="0">
                    <mxGeometry x="280" y="350" width="640" height="40" as="geometry"/>
                </mxCell>
                <mxCell id="16" value="" style="rounded=0;whiteSpace=wrap;html=1;" parent="15" vertex="1">
                    <mxGeometry width="640" height="40" as="geometry"/>
                </mxCell>
                <mxCell id="17" value="Item title" style="text;html=1;align=center;verticalAlign=middle;resizable=0;points=[];autosize=1;strokeColor=none;fillColor=none;" parent="15" vertex="1">
                    <mxGeometry y="5" width="70" height="30" as="geometry"/>
                </mxCell>
                <mxCell id="18" value="tags, more tags" style="text;html=1;align=center;verticalAlign=middle;resizable=0;points=[];autosize=1;strokeColor=none;fillColor=none;" parent="15" vertex="1">
                    <mxGeometry x="330" y="5" width="110" height="30" as="geometry"/>
                </mxCell>
                <mxCell id="19" value="1/10" style="text;html=1;align=center;verticalAlign=middle;resizable=0;points=[];autosize=1;strokeColor=none;fillColor=none;" parent="15" vertex="1">
                    <mxGeometry x="590" y="5" width="50" height="30" as="geometry"/>
                </mxCell>
                <mxCell id="20" value="" style="group" parent="1" vertex="1" connectable="0">
                    <mxGeometry x="280" y="550" width="640" height="40" as="geometry"/>
                </mxCell>
                <mxCell id="21" value="" style="rounded=0;whiteSpace=wrap;html=1;" parent="20" vertex="1">
                    <mxGeometry width="640" height="40" as="geometry"/>
                </mxCell>
                <mxCell id="22" value="Item title" style="text;html=1;align=center;verticalAlign=middle;resizable=0;points=[];autosize=1;strokeColor=none;fillColor=none;" parent="20" vertex="1">
                    <mxGeometry y="5" width="70" height="30" as="geometry"/>
                </mxCell>
                <mxCell id="23" value="tags, more tags" style="text;html=1;align=center;verticalAlign=middle;resizable=0;points=[];autosize=1;strokeColor=none;fillColor=none;" parent="20" vertex="1">
                    <mxGeometry x="330" y="5" width="110" height="30" as="geometry"/>
                </mxCell>
                <mxCell id="24" value="1/10" style="text;html=1;align=center;verticalAlign=middle;resizable=0;points=[];autosize=1;strokeColor=none;fillColor=none;" parent="20" vertex="1">
                    <mxGeometry x="590" y="5" width="50" height="30" as="geometry"/>
                </mxCell>
                <mxCell id="25" value="" style="group" parent="1" vertex="1" connectable="0">
                    <mxGeometry x="280" y="600" width="640" height="40" as="geometry"/>
                </mxCell>
                <mxCell id="26" value="" style="rounded=0;whiteSpace=wrap;html=1;" parent="25" vertex="1">
                    <mxGeometry width="640" height="40" as="geometry"/>
                </mxCell>
                <mxCell id="27" value="Item title" style="text;html=1;align=center;verticalAlign=middle;resizable=0;points=[];autosize=1;strokeColor=none;fillColor=none;" parent="25" vertex="1">
                    <mxGeometry y="5" width="70" height="30" as="geometry"/>
                </mxCell>
                <mxCell id="28" value="tags, more tags" style="text;html=1;align=center;verticalAlign=middle;resizable=0;points=[];autosize=1;strokeColor=none;fillColor=none;" parent="25" vertex="1">
                    <mxGeometry x="330" y="5" width="110" height="30" as="geometry"/>
                </mxCell>
                <mxCell id="29" value="1/10" style="text;html=1;align=center;verticalAlign=middle;resizable=0;points=[];autosize=1;strokeColor=none;fillColor=none;" parent="25" vertex="1">
                    <mxGeometry x="590" y="5" width="50" height="30" as="geometry"/>
                </mxCell>
                <mxCell id="30" value="" style="group" parent="1" vertex="1" connectable="0">
                    <mxGeometry x="280" y="650" width="640" height="40" as="geometry"/>
                </mxCell>
                <mxCell id="31" value="" style="rounded=0;whiteSpace=wrap;html=1;" parent="30" vertex="1">
                    <mxGeometry width="640" height="40" as="geometry"/>
                </mxCell>
                <mxCell id="32" value="Item title" style="text;html=1;align=center;verticalAlign=middle;resizable=0;points=[];autosize=1;strokeColor=none;fillColor=none;" parent="30" vertex="1">
                    <mxGeometry y="5" width="70" height="30" as="geometry"/>
                </mxCell>
                <mxCell id="33" value="tags, more tags" style="text;html=1;align=center;verticalAlign=middle;resizable=0;points=[];autosize=1;strokeColor=none;fillColor=none;" parent="30" vertex="1">
                    <mxGeometry x="330" y="5" width="110" height="30" as="geometry"/>
                </mxCell>
                <mxCell id="34" value="1/10" style="text;html=1;align=center;verticalAlign=middle;resizable=0;points=[];autosize=1;strokeColor=none;fillColor=none;" parent="30" vertex="1">
                    <mxGeometry x="590" y="5" width="50" height="30" as="geometry"/>
                </mxCell>
                <mxCell id="35" value="" style="group" parent="1" vertex="1" connectable="0">
                    <mxGeometry x="280" y="700" width="650" height="65" as="geometry"/>
                </mxCell>
                <mxCell id="36" value="" style="rounded=0;whiteSpace=wrap;html=1;" parent="35" vertex="1">
                    <mxGeometry width="640" height="40" as="geometry"/>
                </mxCell>
                <mxCell id="37" value="Item title" style="text;html=1;align=center;verticalAlign=middle;resizable=0;points=[];autosize=1;strokeColor=none;fillColor=none;" parent="35" vertex="1">
                    <mxGeometry y="5" width="70" height="30" as="geometry"/>
                </mxCell>
                <mxCell id="38" value="tags, more tags" style="text;html=1;align=center;verticalAlign=middle;resizable=0;points=[];autosize=1;strokeColor=none;fillColor=none;" parent="35" vertex="1">
                    <mxGeometry x="330" y="5" width="110" height="30" as="geometry"/>
                </mxCell>
                <mxCell id="39" value="1/10" style="text;html=1;align=center;verticalAlign=middle;resizable=0;points=[];autosize=1;strokeColor=none;fillColor=none;" parent="35" vertex="1">
                    <mxGeometry x="590" y="5" width="50" height="30" as="geometry"/>
                </mxCell>
                <mxCell id="46" value="" style="whiteSpace=wrap;html=1;fontSize=54;" parent="1" vertex="1">
                    <mxGeometry x="180" y="720" width="80" height="60" as="geometry"/>
                </mxCell>
                <mxCell id="45" value="&lt;font style=&quot;font-size: 54px;&quot;&gt;...&lt;/font&gt;" style="text;html=1;align=center;verticalAlign=middle;resizable=0;points=[];autosize=1;strokeColor=none;fillColor=none;" parent="1" vertex="1">
                    <mxGeometry x="185" y="700" width="70" height="80" as="geometry"/>
                </mxCell>
                <mxCell id="47" value="" style="edgeStyle=none;orthogonalLoop=1;jettySize=auto;html=1;fontSize=54;entryX=1.007;entryY=0.104;entryDx=0;entryDy=0;entryPerimeter=0;endArrow=none;endFill=0;exitX=0.999;exitY=0.105;exitDx=0;exitDy=0;exitPerimeter=0;" parent="1" source="2" target="6" edge="1">
                    <mxGeometry width="100" relative="1" as="geometry">
                        <mxPoint x="940" y="280" as="sourcePoint"/>
                        <mxPoint x="1040" y="280" as="targetPoint"/>
                        <Array as="points"/>
                    </mxGeometry>
                </mxCell>
                <mxCell id="48" value="" style="whiteSpace=wrap;html=1;" parent="1" vertex="1">
                    <mxGeometry x="280" y="390" width="640" height="150" as="geometry"/>
                </mxCell>
                <mxCell id="49" value="notes.." style="whiteSpace=wrap;html=1;align=center;" parent="1" vertex="1">
                    <mxGeometry x="290" y="400" width="350" height="90" as="geometry"/>
                </mxCell>
                <mxCell id="50" value="cool blurred image of some kind" style="whiteSpace=wrap;html=1;" parent="1" vertex="1">
                    <mxGeometry x="650" y="390" width="270" height="150" as="geometry"/>
                </mxCell>
                <mxCell id="52" value="import image" style="whiteSpace=wrap;html=1;" parent="1" vertex="1">
                    <mxGeometry x="360" y="500" width="60" height="30" as="geometry"/>
                </mxCell>
                <mxCell id="53" value="&lt;font style=&quot;font-size: 39px;&quot;&gt;+&lt;/font&gt;" style="whiteSpace=wrap;html=1;" parent="1" vertex="1">
                    <mxGeometry x="830" y="220" width="40" height="40" as="geometry"/>
                </mxCell>
                <mxCell id="54" value="delete" style="whiteSpace=wrap;html=1;" parent="1" vertex="1">
                    <mxGeometry x="290" y="500" width="60" height="30" as="geometry"/>
                </mxCell>
                <mxCell id="57" value="&lt;span style=&quot;font-size: 11px;&quot;&gt;1/20/2001&lt;/span&gt;" style="text;html=1;align=center;verticalAlign=middle;resizable=0;points=[];autosize=1;strokeColor=none;fillColor=none;fontSize=39;" parent="1" vertex="1">
                    <mxGeometry x="850" y="480" width="70" height="60" as="geometry"/>
                </mxCell>
                <mxCell id="58" value="Save" style="whiteSpace=wrap;html=1;" parent="1" vertex="1">
                    <mxGeometry x="860" y="730" width="70" height="40" as="geometry"/>
                </mxCell>
                <mxCell id="61" style="edgeStyle=none;html=1;exitX=0;exitY=0.5;exitDx=0;exitDy=0;" parent="1" source="60" edge="1">
                    <mxGeometry relative="1" as="geometry">
                        <mxPoint x="960" y="760" as="targetPoint"/>
                    </mxGeometry>
                </mxCell>
                <mxCell id="60" value="When you edit anything, this save button slides in" style="whiteSpace=wrap;html=1;" parent="1" vertex="1">
                    <mxGeometry x="1010" y="730" width="120" height="60" as="geometry"/>
                </mxCell>
                <mxCell id="67" style="edgeStyle=none;html=1;exitX=0;exitY=0.5;exitDx=0;exitDy=0;entryX=1;entryY=0.5;entryDx=0;entryDy=0;" parent="1" source="62" target="65" edge="1">
                    <mxGeometry relative="1" as="geometry"/>
                </mxCell>
                <mxCell id="62" value="Rename&lt;br&gt;&lt;br&gt;Settings&lt;br&gt;&lt;br&gt;Remove" style="whiteSpace=wrap;html=1;" parent="1" vertex="1">
                    <mxGeometry x="230" y="460" width="70" height="100" as="geometry"/>
                </mxCell>
                <mxCell id="65" value="TODO, settings/permissions page" style="rounded=0;whiteSpace=wrap;html=1;" parent="1" vertex="1">
                    <mxGeometry x="-790" y="210" width="760" height="570" as="geometry"/>
                </mxCell>
                <mxCell id="68" value="" style="shape=image;verticalLabelPosition=bottom;labelBackgroundColor=default;verticalAlign=top;aspect=fixed;imageAspect=0;image=data:image/png,iVBORw0KGgoAAAANSUhEUgAAA+wAAAMvCAYAAABIpVqSAAAAAXNSR0IArs4c6QAAAARnQU1BAACxjwv8YQUAAAAJcEhZcwAADsMAAA7DAcdvqGQAAJCjSURBVHhe7d1NzBVnmhjsaqREhhV0FAm8CViRupXN4FGkeDUNs4npLJqOohhbURpbytggRRp6EWBGMsZSGphNk0UwysLQiwx4FDVkZWfVdDbTvRmTXbcifTCbwCKSWRkvIubzfajCz1uu81//dV1S2c85vO976v/U/dzPz3f+7mtZzx04cCB7/Phx/irLBrDKAAAAsJVd+f9767PPPtsRrL/33nt5CQAAAMar9xl22XUAAACmqPcZdtl1AAAApqjXGfZoDn/s2LH8VZY9e/Ys+853vpO/AgAAgPHqbYY9gvU333wzfwUAAADNiRj06NGj2c2bN/N3utfbDHu573o0h7927ZoMOwAAALUrYtCXXnope/r0af5ut3obsKeBeQTrH330Uf4KAAAA6pXGoH0Jk3sZsJf7rve0TgEAAICRELCvyFRuAAAAtKmPAXsvB50zlRsAAABT18sMex9rNgAAABgvGXYAAABgJQJ2AAAA6KHeBewxQjwAAABMXe8C9rfffjsvAQAAQPtu3ryZl7rVu4DdCPEAAAC07aWXXspLWXbq1KleDDzX6z7sH330UV4CAACA5ly4cCEvZdlXX32Vl7rVu2ndTOkGAABAF9J49NmzZzted8Eo8QAAANBDAnYAAADoIQE7AAAA9JCAvUUxx/yhQ4dm/SDWXeL3+jK1AAAAAM0TsLegCNSPHTuWPXz4MH93PfF7MbUAAAAAzUindrt8+XJe6o5R4hsWwfqbb76ZPXnyJH9nO0bOBwAAaMaZM2eyq1evzsoRvD99+nRW7ooMe4PmBevvvffeLPBedbl06dKL3wMAAKAZRewV+jAXuwx7g15++eXs0aNH+avnAfdHH32UvwIAAKBv+hST9irDHhnpsYgB4h4/fpy/EqwDAACwnl5l2A8cOLAjyB1qhv369evfGiBu6K0FAAAApkCGfY5yRnqoLl68mJee0/d8M9Hi4ujRo6azAwAAJqlXGfax9F9PtyNGFUynBmB1RYuLPozOCAAATEOf4lIBewPGsh1dsx8BAIC29SkOMa1bzcY0cB6a5QMAAN2RYa/ZWAbO64M+nA+a5QMAwLTs3r37xRzsMS/7uXPnZuUuyLDXbCwD5/FccTyLC5Z+ipYQhw4dmlXyzFvi37WUAABgmTSOKw8o3jYZ9pql2/Ds2bMdr1lPH86HMZyTYxfB+ltvvZV98cUX+TvzaSkBAMAykayLLHuhyzhAwF4zAXt9BOwsE8H6m2++mT158iR/ZznHEQCAZfoSB2gSD7Si7gH8qoL1aL4UN9TyEn2Pin8HAIChkGGvWboNMuzb6cP5MIZzsi/qHsCvPMBjBOMfffRR/goAADbXlzhAhh2oxbKB39IB/OrIsgvWAQBoSiSZCpcvX85L7ROwN+iVV14xKjW9kAbTTYyWXjRPf/jwYf7OYqdOncpL9bh27VpeAgCA7fVlpHhN4muWztkXjEq9uT6cD0M/JyOQjuC4HEjXeV5W9SVfxbb7Mz02up8AAFCniOn27Nnz4pm1q1hAhr1mFy5cyEvPxYGOQMIc0HTh7bffrsx6p5VK24rPWGXgtzpdv349LwEAQP3SJvFdErDX7Ny5c7PgpHyAI2iKTKegfX5f53hPIFaf2JdpP+8mxLHcpC952sRoE2mzpBMnTuQlAAAYF03iGxIDE5w/fz5/Ve3gwYOzjPzJkyfzd6Yh+vY/ePAgf/VtsV/Onj27o59zV+fDUM/JcjP1CGpv3bpV+/aUR2pf9Dfr/Oz0b0XT/r7UgAIAMB67du168dzaVSwgw96QItMeSzEHdNlUs+5/8id/kpeqFfslJfO+nnIz9Rs3buSlepWz610QrAMAMFYC9hZE8D4vaI++xBFcRcZwKv3c08qMYoks6aKWBhHAj3kfRUY8Wh5suo3x+0ePHn3xe+VAuo2g1rRqAABQL03iO7KoyfxUm8qHqMBYpdVB0Wy+6axuW+dkBOnp4HARYK8zinvRNL34vXnrXff2rPr3ooVEnV0cpnSvAACgG5rET9iirHtVk/CpiIAzmm+nAdn3vve9vPSNYh+NJeP+7rvv5qXn1q2sKTLqUeER2fa+6XLuSgAAGCoZ9p6oyrhPbR8UIht7+vTpb9VmdTGQ31DOyXQ99+/fP3cguLq3Z9W/l/5c2Pazh3JcAAAYLhl2Xij6dW8iMqqRaY4gZtOlT5nqyMYW+yKdsqvYR4v6u0fmPcYEGEvmfRN9GAgOAACGLh0HKpKHXZBh75l190EE62+99Vb2xRdf5O9sbt1+001J90GsT3qhpFbJuJetm4EfyjmZrmeqvM51b8+qf6+8ftt+9lCOCwAAw/XTn/40+/nPfz4rdxUrCdh7Zp19EMF6Otd2Hfqw3zc9D1YN4Ne52IZyTqbrWYjsennk9rq3Z9W/V16/bT97KMcFAIDhivGhdu/enb/q5rmzt03ip9qceVVVwXoEaHESrbKk/tW/+lez//eh+fQ2A6YVTebnDeZXmMro+6ZZAwCAzc1r6dumXmXYo/YiajFCX5pnt23VzGExjVehKpu6SF/3dXm7uj49h5LJLWewQ9X61r09q/y9qIQ5duxY/uq5bT87/dyYVWAqlTAAALSr63igVxn26FtcKIJJqm0TrIc+7usI7AyYNj4xCGAqHUhwU2ltZ0zv18XNEwAAmtargD2aNLO+CHTX7ULQx31dDuyabNId+6w8sv6YRpbvU2VHWgkTIiO+rXKFky40AACMUa+axIeumxx0JQLIyBTGtGSFRduf7qewSbP2vu3rdH02aTWwjgjO0329jbrnft9E+XyYdzzTrhDR13/biptl51DMqR/ndaquc00XGgAAmtZ1zNS7QefSpq5dzXXXhcgupwHkus2Gx9aF4Nq1a3mpGe+++25e2l4ct3JQOk9UzBw9erSzjHCaeY/57pvW5GfoQgMAwNj1LmBvO6Dog3Lf7QjWN2k2vGoQWDQHn7JiRPliWTay/DKrZtejYubevXsrB/h1i+0sagmbDnLjfCw3h6+TLjQAALSpi6Rb75rERxDR9Vx3bdtkZPRyE+iwSrPgCNar5m7vej+Xm04/e/aschvb1ETzl/Rv1jm6eXlfLVrfXbt2vfj3bddh3j6qagof6u7q0MQxAgCAQtfdMHvdJH7sInh+5ZVXahsZPU6kCGAWLTG9VjlY3+Yz65K2pqhjFPFtRcDZhPT8joC2jlq6OI9Sy45neR3qkm7LvNYxTY5L0EWNJwAA49Z1N8zeZdhDBJaFMWfNypn1sOr2pvsoArBNTp66s52bKmdjo9aq64qb9NhEBcKtW7dm5W3FuAznz5/PX9VTS7duC43yOmxzjaU1jquo+3o28BwAAE3rMj7tXYZ9Coo+5OVgfdNM9/vvv5+XVteXYD2Us+tdB+txfNJj8/HHH+el7UW/67S/fB21dOXzaJk6+36nNY5dML0bAABjJsPesrr6kKf7qA/9vbeRrnvfsuuhif1b5zleXrdV/l6dn1/O2KeiYijtXtDE9SzLDgBAk+p8dl5XLzPsacA2pqnd5gXrm2bWx+j27dt5qTtpsO7YLFcecT9d2mjFYXo3AADGqpcBexokDWVqt6KZeyzlZrnFv5UHfIvtjOxtX5qmdyH2TarOQdDqEMem7ux62TbNuMuD421SwdBkM/Ly8W1CVBg0fYwAAKALvWwSH1myIU3tVs6cl5vlVg0uF4HVNoF6GqAMuUn8NgPvNaE8AF5T61JXM+5NB8crf/6dO3eyK1euZD/5yU9qm2ourDsg3qbSqer6fr8AAGBYNIkvSZvEh74PJPX222/vyJwXAU+RWa87WB+T8r7pWlvTy9U1WFq6/2JO9VWVPz/O4Xv37tXawiEqP9L12yT7DwAAU9bLDHsY0kBSaY1LBCU/+tGPZoHPw4cP83e/UdfuHkuGvWq9uzwl0/VpegC88jn+5ZdfrnUco0IoulkU1t1v6een6tr/m2b/NyHDDgBAU9Jn9LafNXs7rdtQB5KKrGIEUVXBep0ZxjSQHNPAfF0q9wdvMlgP257jkRXfRtX5WGergk2z/wAAwHO9DdjrnCu6acsCuwiMoiamzmbwabD14Ycf5qVhKQfIXWurOXxh23N82+bmMR982l89trmuwLo82FzTlR8AADBGvW0SH7pserCOefNQRxDVVF/1yMju27fvRWY2srUffPDBrDwUVQPOhS6Odbl5edPN4QvpOX7kyJG1Bn1Lm7T37fpoa7C5gibxAAA0RZP4gZs3D3WTA8tFMJlmVSM7vChgLwbAq5p2rivl+ejDJpniOpSbl3eREV530LeiSX1X+2yeONe2zf6vo5zNBwCAOqWxwf379/NSO2TYByyyqz/+8Y93BCwHDx6cBXLlLO3LL7+cPXr0aFaOE64Pg/iVWyY02SJhmfRcC22db+XPDUM/19vOrrf9eQAATEtM4X379u1Z+fjx47Mpkdsiwz5gEXjHyZI25Y7B7iJbXM6kpwFNnfNsb6PcMsFUd+PQdna9zc8DAGB6zp49m5ey7O7du3mpHTLsIxCZ9mhKvWpTd/vy29JzrekpyFJVU6sN/fi0dd1GsB61nWnXCuc2AABN6Co2lWEfgci0x+jeMeo3m0n7pbQ5BVk6tVsYeoa4zYEPoyVJGqzLrgMAMDYC9hEpmpgvCtwFNdXSAdzS4L1pY+oWENP0tTE1XmTWo8tHuSm8LhUAAIyNJvFALdLB315//fXZ+Ap1VX5EkB7dPmKMhirPnj3bcb8AAIA6aRK/RF+mIgOqpRnvOoP1EM3f5wXrWo0AADBWvQ7Y0wf+yK7JskOzIpN99OjRtSvI4vdSdXcrmDdnf9wToim87DoAAGPU64A9HZCrPJI2UL/IZN+7d29WQbaO+L0mpWMMRJBeBOoAANCGNCF1//79vNS8XgfsMSBXSrN4aFbRrH2dCrLIrjc9F3oxOJ8gHQCALhw/fjwvZTsGWm5arwedC+k81VGr8fTp01kZqN+6g2lEsG4udAAAxi6y6q+++mr+qr1n3t4POqdZPPSXudABAJiCw4cP56V29T5gLzeLB9qxrAtKVVN4TdYBAKA+vW8SH8zHDu1YpwvKyy+/nD169Ch/5doEAGDcuohLe59hB9pT7oIyL8vexkBzAAAwdTLswA6rZNkPHDiwI2B3XQIAMHbpc3K0NN2/f/+s3KRBZNjTOe8uX76cl4AmLBroMTLrhw4dkl0HAGByjhw5kpey7O7du3mpWYPIsJ85cya7evXqrGxqN2jerl27XmTNb9y4kZ08eXJWLmfWg+w6AABTEN1FY5akEMH7r371q1m5SYMI2CPLF80PCgIEaNaePXteVIxFJdmdO3eyU6dOZQ8fPpy9VzAyPAAAUxHTGe/bty9/1U5cOoiAPejHDu2Jrifnz5/PX1V79uzZjusSAADGru24dDCjxOvHDu05d+7cjmuuTL91AABo3mAC9jRAuHjxYl4CmpIOPleI6zBqEqMZvOw6AAA0azBN4qMfe/SrLVZ3IKsNAADASLTdJH4wAXtIR64WsAMAANAmfdgBAAAAATsAAAD0kYAdAAAAVpDOpHT//v281JxBBeymdgMAAKArx48fz0vPZy9ruh/7oAad++lPf5r9/Oc/n5UjeH/69OmsDAAAAE2LrPqrr76av8qyZ8+eNTrd8aAC9pjabffu3fkrI8UDAADQrjRAF7CXtD2MPgAAABTaDNgNOgcAAAA9JGAHAACAHhKwAwAAQA8NOmC/efNmXgIAAIBxGdygczFKfIwWH0ztBgAAQJsMOrfAhQsX8tLzad4AAABgjAaXYQ+mdgMAAKALMuwAAAAwcYMM2KPveuHy5ct5CQAAAMZjkAH7e++9l5ey7OLFi3kJAAAAxmOQfdhjsLkYLb6gHzsAAABtaLMP+yAD9mDgOQAAANpm0DkAAACYOAE7AAAA9JCAHQAAAHpIwA6wos8++yw7dOjQrJ+SpXqJ/XPz5s18jwEAsI1RBOweDoFVbRN0Hzt2LHv48GH+l6gS++ftt9+e7S/BOwDAdgY7SnxM6xbTu4WXXnope/r06awMUIjg/NSpU4LsHjt48GB24cKF7OTJk/k7AAD9FomJglHi54gHvEIRuAPTsGqWvKmM+HvvvTebTtKyc7l06VK+h1aXZuSbWmT6AYChGmyGPcSDWGHAmwFUaDo7HkH3Rx99lL+ibpcvX87Onz+fvxovLQQAYHrSOLTpDLuAHeiNpoL0CM6vXbvW6M2U9U0lqJ8SFRgATIGAfUUCdhiXAwcOZI8fP85fLSdLzjIqBdpnXBkAxk7AviIBO4xL1c1OUE5fqQyYz3cyAGMmYF9RumNu3LihCR4MnEo4GC7XLwBTIWBfkandYFw88MNwuX4BmIo2A/bBTusWTO0GAADAWA06wx7U6MN4uJ5huFy/AEyFDDsAAABMnIAdAAAAekjADvTCZ599lpcAAICgDzvQCwcOHMgeP36cv3I9w9D4PgZgKvRhByYnDdbfe++9vAQAANMlww70gmsZhs01DMBUyLADAINhDAoAaIaAHeich30YtrfffjsvAQB1ErADnfOwD8NmDAoAaIY+7EDn0us4HvY/+uij/BUwBL6LAZgSfdiByRKsU5foanHo0KHZl2jVEv928+bN/KcBAPpHwA5ApQh4X3nllUEGuLHub775Zvbw4cP8nW+Lfzt16lT+CgCgfzSJBzrnOu6fIuB98uRJ/s5zL730Uvb06dP8VX8dOHBgR7/qeXTBqIdrGIApSb/3NIkH6LEIbI8ePTq6ptUxEGA5WA8nT57MS/1WHgQtgsiqRbAOAPSZDDvQuSFfx0UmdyiZ51Wlx2SIWWjfDe2yvwGYkvR7r+kMu4Ad6NyQr+Ox3oOGvl2+G9plfwMwJen3nibxAAAAMEGDD9ijGWrh8uXLeQmAupj6DACgG4NvEn/mzJns6tWrs3IE719++WWjTRKA+g25Oe1YmwLv3r07++qrr2blIfbPH+tx6Sv7G4ApSb/3NIlf4tKlS3kpe/FwCcB2Lly4kJee31tjDvbr16/n7wyLFgLNipkSAIBmDD7DHtqs4QDqN+Ts3JDXfZm0BVPh4MGDs2C+79O7lVsI/PznP5+Ndk/9ynPey7ADMHZtxp8GnQOgUrRgivnYUw8fPsxOnTrV+6x1uYVArPMHH3yQv0OdynPeAwD1GUXAbuA5gPrFvfXjjz+e9V9PM+oRAEcgH83k+xq4nzt3bkeXqXDx4sVer/MYXLt2LS8BAHUYRcCe1uh/+OGHeQnW98knn2Q/+9nP8lerif6bR48eFQQwWhG437hx41sBcJFtj3+rWx3XVQTtUdnw+uuv5+8Mp4UAAEAYRR/2yPZEf8WC/nNsKoL1P//zP1/rHCr6bw5xJO2+0Ie9PhHoXrlyJfvJT37SSD/zaMV0/vz5/NVzce5/9NFHtX5enddV0SQ+DdKbWOeparMfHwD0QZvffaMI2EPfHpqZjvTci0yjAGB9Q75++7buaaDb5DSX5cC97gqrJvZr0+s8VemxErADMAVtfvcZdA62FA/9hcjiQZeePHky+38xQnpTyn3E4/P63sy8ap31aQcA+kzADlsqj0YNXSrOxzZG644AuFxhNYSgPe1CVfRpZzPmYAeAZgnYR8LAZ92JAAD6Is7HaEIe/bPbaJpcNX1a373//vt56TmZ9s2Vp/0DAOqlD/vARaB++vTp7MGDB7PX+mR2Y5PzL4KDmGYqMnxVDh48OAuGptAnfsjX71TvPaly3/A69kMb+zUy7WmrGPfP9aXHKVp1xLRu6XsAMEbpd51B51bUxsNdHxUDTKWmtP19ser5FxUskYGcF6RXicD97NmzrTRx7sqQr9+p3nvK6t4Pi/5ecR2FbSq1qka8n/Ix3ITzH4ApSr//BOwrmuJDQzy0Hjt2LH/1DQ9N7Vvl/IuM+pkzZ14MCrauMWfch3z9TvHeU6Xu/TDv75Wvozqy4o7h5uw7AKYo/f4zSjxzNdl3MB6Ko09nnHzlpa2+nn1YhzpExcorr7wyO17lYP3EiROzYCMedNMlHcm6EFn5+Bv62jJVH3zwwbeuI9MoAgBjJsM+UPOy62HT7V+nuXbTfT2vX7++dPCqPvU3XXT+VXVbiObtMSjYMsUgXuUAfWx9bYd8/U7t3jNPnfshzvdVKiRXvY6WcQw3Z98BMEXp958MO5Xqzq5HsP7WW2+t3Lc6Asmmsrzxd//sz/4sfzVfZNZivfs6On6sW2TD02C9yKivGmREYH7jxo1vZdyb3P8MV5+vh3mK6yS+6Ipl2f3t9ddfX+s6AgAYKhn2AYoH3DS7HlmmyEgX1t3+eLiv6lsdwWUEixE0FtJRlZvI8lZl1uMz0nUoxH548803Z+vddca56vwrZ9Zjf966dSt/tZk9e/a82M7Y5ghYxtAkeMjXb5/WvTjnurgeNt0PEayvMwhj1X1pW1P6/qibfQfAFKXffzLsfEs5+xTT6GyiyGyV+4RGBUA8eEVwWX4oLs+5XKdYn/KIzbEuVQ/mabAe6l6XbcX6lYP1CDK2lc4fHdu8rNsA01Kcc327HhZ5991389J8cT8qlqr7EgDAWMmwD0wEguXsegTsu3Z9U/eyyvaXA97CKn1Cm9jXVeszL7Me+jadXXmflNevzpq3Jua87tpQr9/y9dj1une5H+v87Lb361DPv66VW0TZdwBMRfrsYFq3FU3hgasqqC22dd3tr2qu/fHHH8+avC/TxL4ur8+yioOqi6LL456uT7RCuHjxYv7qm0qVqnXeVBPHoEtD3Z7yedv1une5H+v87Lb369iup7akx6mOLj8AMBTps4Mm8bxQ1XR9XRH0lwdCi78TD1qrBOtNiHUqr8+iZv7x832WBuvxEBsVD01exHSj6rylHvbrMKTHqY4uPwDAt8mwD0i6jfEQm2agV9n+qgz9JlmROvd11Tot+5vl7Fuhy+NeFZDHSNZ37txppL/t2M73IW5P37Lrocv9WNdnxz2h7W4GY7ue2tDFcQKAvkifHWTYmYmHo9SyfuZl84L1rrMi67YaiD6TVcF6HzUVrNMPssDfKN+ftrFsSjf6wXECgHYI2AegCLY3Fb8fc6yXA+M+jLZcDnqWVUSUm5vXIfbPNnNXVwUrsS2C9elYtwJtbN555528tD0VIcPgOAFAOzSJH4By09uqwHbe9hfBfjlY3ybAqHNfr/q3YjtiNOJ0vubIYP/4xz/OX22+LsX+jQB7k7mrVzk+dRvb+T7E7enjOnexTnFt/vCHP3zxeX26v6xqbNdTG+wzAKYs/R40SvyKxvzwkG7bvIfhqu2PjPGZM2dqDdZDnft61b9V1W99//79O97bdF222Z7ytEZh232yijqPQR8McXv6uM5drFNdffkj8D99+nT24MGD/J32tmFs11Mb7DMApiz9HtSHfQObNm0eglWD7Qgkq/qHN535XUdVU/J5ysF6bEs5q92FtIl+6Go9oCt1XYdR8ZUG621Z5z4EANC20WTYY0qyr776albetGlzH8XD5Coj8aa1Op9++mntzeBTdWVWVs3MlbPYxc/VtR7b/J1ybdo267GOura9L4a4PX1c57bXad61uYnLly9n58+fz1891+Q2xL213M0mDOX869rY7kEAsI70e1CGfUUXLlzIS9mLwH0MNhmJtxysR+VFnzLrhVUyc/FQnT7E1zXQXF0MLDdNsrL1X5vnzp3LLl26lL9qprVKrPOhQ4dmX6pREVoO1rWQAQD6ZjQZ9jC2Gv9y9mpRlnxerU6dmfVCXft52d+Jh+uqyociSG5rPRZJs4JN7Ot56tr2vhja9tTVb7tube7H8j5Ir80+qrqfpNq8fsdgbPcgAFhH+j0owz5h5SnM1n2YHPoDaFUf/L4FBJEVjIfVWDzsT0MEfnX12x6iIktd3gd9b20SlZ9VwXqsu+t3PVGZDAC0Q4a9x9LtWZa9KtfqRIAf86w3oa79PO/vREBQHi26qvKhjvWIz1pljIC+qesY9MWQtqev2fXQ9H6cl6Vuuma5Dl21hhmj9Bpo8rsGAPoqfe4xrdsahvTQv4pVt6ccdIYmm6fWtZ9XPbHnPRDWsR6vvPJKJ9NIbWuq53ofpOvat8Cvyf04L1iPfXDt2rUdn824pce6710hAKAJ6XehJvETtU6Tw3feeScvPRcP0EN4gFplHSNYv3HjRv6qfn/yJ3+Sl57vtyHQHLU/4ljEDbrJJZqfdzFVZQToxQBtsUSlYLmLSlQKRIVF/DvTEOdFSrAOAM2SYe+hciZrWZPDXbt2vdjeNpon1rWfq6ZxSi3LXo7leK9rjM1Rh3Qs0ykk2xJBUWQyl0nXbdv9GMF6eRT1wrJrk/F6+eWXs0ePHuWvpnXvBYBC+uwqwz5B5cHWlmWY0wxHk9nouqUDtlUtAoJqaf/pIR3vsUinkGzLyZMn89JixbrV0Vrk3XffzUs7CdanrTzYIADQLBn2Hkq3Y5WH4yJT3daDdF/281iO97rGuN1TPZYwNGmLLtcqAFOVPrsadG4NY3no7/t29GX9xnK811Vns+e+mOqxhKERsAPAzmdXTeKBHeps9gywqvKAcwBA82TYe6jv29GX9RtjpnmKIggY4lz4MDXpgJfBtQrAVMmwT1yfp8npU4ZFpnkcYpBFoN/i3m/AOQBonwx7D7U9iNw6ZFioW3rd9vGcB9z7ASAlw96iyBrEfMOxk/uyFHOTX79+vfLfY31v3rw5+5m2ybDQJME69JN7PwB0Y/IZ9gh+Hz58mL8an4MHD86ajq86j/My6T6u+28zTZtct0C7XKcA8I30e1GGvWHvvvtuXhqnqIyIPsJxElUt22Tr42+fOnUqfwXAGHXVogsAELBn586dm2ULhrJcunQpX/N6LAroq4L58oB4susA4xVdswwMCQDdMejciBWD19UlmsD/03/6T7P/9t/+2+y1AcKog+sW+qs82Jz7PgC02yRewD5hdQf0Kf3bWUVk79JuFa5b6I8YlPXYsWP5qyx7+vRpr6cdBYC2tBmwm4d9whZ1B9i26f28pvZdjnBP/3z44Yd5KctOnDiRl4CuRbD+5ptv5q+eE6wDQPtk2FlJk9n4VUXW/uzZs6YUGpFdu3a9uFZl76A/NIUHgPnSuFOGnV5YZ3C+ugfGKxSj0hfZ+kVLZPKjuXVT+jh//yZLn1o8CNahPwTrAFC/jWKIrwMsGXZa0YcsPf3lmoV+KPddd20C0FeReLp48eIssTdWAnYG4auvvppl1/V/Hy/XLPRDuTm8axOgXlMIMqmPJvEMQjSXvnHjxuzBcdkSfaHbGp0+mopWrcMQlqa6LmzCuATQD5FdLzeHb1Ib3Yv61PUHGL/79+9nZ86cWXhvi4GZBevTtk4MIcMOAMysm12PgDtaPw35wdOApjAtY7hvsVPMNBSJvTbHQ0rjzo8//nhWCdMUATsA8K2+6xHApoPNxb+fPn06e/DgQf4OdYlKgwsXLrTWOgzGakjBeASZEejt3r07f4chieMWXXZDVBREC9+maBIPAGTvvPNOXnouZtoomm/GEsF8U8H6Ok0D11n61PVnkQguIjuT7u9iiWa1Tc56An0Q3Vbq6B4T96mug/X9+/fP7mm/+tWvKu9LxXLr1i3B+oBFJWuhCNybIsMOABMXWakf/vCHG393lrPxQ2FAU9ahJcR8QxxEbaj3LfqjrdhTwA4AE1fuu76Ih9x6mfIU6uc+RRsE7BsQsAPA+tK+eAUPvN3TAoAp6WLgMNhGW7GnPuwAMHFpX7wI1OPBQ7DevXWmNLU0uwxlPIQuRcAdA29V7b9VlujTLViHb5NhBwAAgDXIsAMAAMCECdgBAACghwTsAAAA0EMCdgAAAOghATsAAAD0kIAdAAAAekjADgAAAD0kYAcAAIAeErADAABADwnYAQAAoIcE7AAAANBDAnYAAADoIQE7AAAA9JCAHQAAAHpIwA4AAAA9JGAHAACAHhKwAwAAQA8J2AEAAKCHBOwAAADQQwJ2AAAA6CEBOwAAAPSQgB0AAAB6SMAOAAAAPSRgBwAAgB4SsAMAAEAPCdgBAACghwTsAAAA0EMCdgAAAOghATsAAAD0kIAdAAAAekjADgAAAD0kYAcAAIAeErADAABADwnYAQAAoIcE7AAAANBDAnYAAADoIQE7AAAA9NBoAvbr16/nJQAAABi+0QTsFy9ezEtZduLEibwEAAAAw/Sdv/taXh6073znO3kpy54+fZq99NJL+SsAAACoTxp/NhlSjzJgH8kmAQAA0ENtxZ8GnQMAAIAeErADAABADwnYAQAAoIcE7AAAANBDAnYAAADoIQH7Bj777LPs6NGj2c2bN/N3AAAAoF6mddvAgQMHssePH8/meo853wEAAJgO87Cvqc2A3ZzvAAAA02UedgAAAJgwATsAAAD0kIAdAAAAekjADgAAAD0kYAcAAIAeErADAABADwnYAQAAoIcE7AAAANBDAvYt3bx5My8BAABAfUYRsF+/fj0vteOll17KS1l26tSpvAQAAAD1GUXAfvHixbyUZSdOnMhLzblw4UJeyrKvvvoqLwEAAEB9vvN3X8vLg/Wd73wnL2XZl19+me3evTt/1Zxdu3Zlxa4bwS4EAABgRWkM2mQ8OLo+7GlzdQAAABgqg84BAABADwnYAQAAoIcE7DUwtRsAAAB1G92gc8+ePdvxuil79uzJnj59OitHv/miDAAAwLgZdK7n3n///bzUzNRun332WXbo0KHZ0vY88wAAAFRrMz6TYd9Ck7UqEag/fPgwf/WNgwcPZmfPns3ee++9/B0AAADacuDAgezx48ez8okTJ7Jbt27Nyk2QYd9COoXc5cuX81I93n333by0UwTxp06dmlUWRFCv/zwAAEB7imA9fPzxx3mpGTLsWzhz5kx29erVWbmJfuzR1D6C8zqCcpl5AACA7bUZfwrYtxAB9e7du/NXzQ42EOoM4MsioD9+/PgsqN+/f3/+LgAAACkB+5q6CthD+llt7spogn/+/Pn8FXQvKn0uXLiQnTx5Mn8HAADGR8C+pi4D9siwF6PEX7p0KTt37tys3CexfqdPn85u3LiRvwPNMMUhAABj12b8adC5LaV9wi9evJiX+iWCqBgMIepm5i137tzJDh8+nP8GbKaovAIAgDFqe8ptGfYtRYCyb9++3mfZoUnpNTeCWwoAAFQqT+n2l3/5l43GnwL2GjQ9Wjz0nYAdAIApSJ97I+5Lp/pugoC9BpFdb3O0eOgbATsAAFPQ9nOvPuw1aLpWBQAAgOkZfMBe9B/oWhq0f/DBB3kJAAAANjP4gP3KlSt5Ket0lPPyaPExTzpMRVph5dwHaM7NmzezQ4cOzZpk9nGJdWt7BGWAMRt8wH779u28lGUXLlyYfVl0IUaHf/311/NXz4N2fXmZiiFMb1i3zz77bPZgGks8QAPUrSo4f/vtt7OHDx/mP9E/sW6nTp3asc7pIqAHWM/gB52Lm3+h600pDz7XxQB40IUpDrwYD53lh+aDBw/OKg5PnjyZvwPwbU+ePJnNLvOLX/yi18F31+Keevbs2R2VwgBdazv+NOhcjQw+x1RN8dx/991389I34sE7sl9pJkn2HaatKku+b9++WWukTYP1mPc3phKKB8U+LbFOdVZYLsvWxyJjD4ydgL1maeAylabBMEXnzp2bdYVZpHjY7EPQrgk/1Cuy5DHIbDkYLy/bNmGvCs5v3brVy4rSWKcbN27sWNd0qTugD1VBvfscMCaaxNfszJkzs2Zuhc8//7zTwfCgLX27FtsWg+2dP38+f7WZJpt/Hjhw4MWsGvFQHQ/OwGru378/a75+9+7drYLvlC40i0VXq7orPO1zoA5tP/MK2GsWXzDHjh3L7t27N3t9/Pjx7M6dO7MyjFl6LUaGZeoPRNsE8E0E7unxib/70Ucf5a9g3PrQXzyy5HFfnGL3oSZtEtSrsAS2JWBfU98C9hA18a+++mr+aprZRqYnBp2Lh6fggei5OrLuTTOo0zhEwLJNn2g2I2PbP6vcdz2XAdsQsK8hBhmJmtVCnzaljxUJ0KTyQ5Lzfj1NNP8E6rF///5Zi7k33ngjO3LkSP4uQ5F2CQq+n4BttB3nDXrQuXRQt2huBnQnBmFjc8VgTdEyIQapAuoTmfBFg6EtWx49ejTrRiJYH6Y0WNeaCNhGF7NSDDrDntZuxENun/qGpc2Do7lcjCQLY6dlSX9VHZu4R50+fXoWyDB8+klDNd9NQF3SFjvxvRuzdjRtNAF73zbDaPFMkYeifoop3WIwzIJjA0yJ7yagLun9pK2EsYC9IZG5+uEPf5j96le/mr02WjxT4KGon/TfBKbMdxNQly7uJwL2BhktnqnxUNRP6XExpRswNb6bgLoI2Nc0hBuwLwmmxPneT44LMFV9nlEIGJ4unqkGPUo8AItF/3WAqTKjEDB0AvaGpQMRGCmesUvP9+gSQvdMEQdMWTp+hxkxgCESsDcsne8zankvX76cv4LxicEVC2lWg+6YfxiYqvJ8yaY8BLbRxRzsQR/2hsVo8T/+8Y9fNEuNL4uYAgCqxHkSfe0ePnyYv/PcwYMHZ/P5nzx5Mn+nnwy02D/6rwNT1cV8ycB4dXVPEbC3IIL23bt356+G/9AcQeWVK1eyn/zkJ70PIIfk5s2bs/n7nzx5kr+zU1T2fPnllzvO+z4SIPaL4wFMVXr/i+/P9FkMYF3pPaWtOdiDgL0lY3poLmqXtBaoTzSxOX369MJzI5ozX7t2bce51EdjOtfHwPEApiq9/z179qz3359Av3X1TDXYPuxGPl5d7KtXXnlldpJVLYcOHZpld1dVNAWJlgM8F/s49uMm+zNEf+/0wo/gPF6nS8ydHX8fAACYhsEG7EMe+bjtAQtiXz148CB/9W3RXzr6TacBI6uLYP3NN9980e88/h/7PK0UKQL5qmMfv58ODBatFiI4h22p2GRK4nw/evTo2hWmjFNXg0MB1G2wAXsa4Axh5OO0j0MEx+n6N22Vz+p7X/Q0g10VCK/zgFbnQ138rQjW5/U7TxUVI+XAvVz51FZ/GMbvnXfeyUswfnEvvXfv3uw+C+ZfB+rUZSXgYPuwR6BWGMImxHRu58+fz19lswxqWxUNMchKufn6NqOOt7nvIyCuGjW9LILc2KerbE/aB3/bQdzS0SLDa6+9lv3mN7/JX60vzomhZ9fT8+3SpUvZuXPnZmXat2vXrhfX6BjOLVhkaM8FNCs9H9ocHAoYpy5nnRCwtygyukU29ciRI9mvfvWrWblp5cqCwjpBbqqtfb9O9jrE9qwyCF66/tsOQpP+7qKAKALYqHhYltUfw0NmjHR/9erVWXnVY0Iz0oB9DOcWzBPfF8eOHctfOd+nLjJhaUsL5wOwrfSZv+1KwME2iR+i48eP56Vs1myvLZHhjExnWQSRUYGwySBpTZsXrEdQHF+8VV++bTfrLzeNWZS9jIv6xo0bswu8790PtpWeawYm7E5cQ30Q66FfMU0rdy1i2jSHB5rUZrAeBplhH3LNaVvZ6UWqMu5x4sWUYas89LSxDS+//HL26NGj/NW3s9fbZFPS9d80w16uUNimaUwfzom6jXGbhqbcXaOr42AaSJoU9+KqblPuO9OWfge1nQkDxqnLZ9tBZtjVnG6nKuMemdCYB7xr8fAVGf9FwXroOpsSn59m/yN7Dn2SButxDXWlWI8ptrYo7mfxJb9s6WNLpyGIe/GyMU6YNsE6MHSDzLDHw01haDWn6br3YdeXs+2rrFOT21DOCs7LXKfrsKjveJX0dzfNsG/z+WVN7s+ujHGbhqYvx2Cq50IE62+99Vb2xRdf5O8spxXCeuK7Ir4zqrjvTJvvIKBuXd5XBt+HXc3pdpocwTuyRUV2adXsUTlYXyVzvU2wXIc6P1+GDYav6DKzTrAexj6+Rd3+4i/+Ii9l2eHDh/MSAIyLQedallYwRHZ7bNImoGlTxWIO8nVEZr2PFTKxjXVKt3GVkeSB/iqC9bTLTLTCidr4ZUvXlY9DEvs5vVfGNKUQ0op/gDEQsLcs7UsaffHjIW0s4gEqmoDO6084lj6sdfefTx80Yx+tW7HRR2OvmOq7uiuVWF15fIttu8xQLfZz2oIhnYWFabty5Upe0vICGAcBe8vGOuVVZDqqmoA2MShgl8FIfHZae59WwGyqPAhgnBflKeOGplwxRbvqrlTa1NQqDqruD00G6/F5U5wyL+6Pdd+HGY/bt2/nJS0vgHEY3KBz8YCy6XRefZEOWrDpoGd1WncQhfTnP/3008opddIH1XX+/io/u+10VelnrLv/m5wqa8+ePd8acOrgwYOzB46h9W2NSofdu3fnr+rdTyyXntNNB42LNHm99E18N5Wbwjd9fy/2b7RomdJgdel5lQ5Musr3B+M2hmdEoJ+6/I4ZXIa9L5mjugw9MxIPqIuC9SakAUDbmZUmP/v999/PS9+IfRvn/NCmfCqPPTC1DGCX4oE11WVz7C6v1bZVNYVvWrF/x9Raa5lydt2UmqTG9owIEAaXYe9L5mgbkXksHrD6kBlZt8ZoXsYoMh0ff/zxjsxqWOfvL/vZOmrP089YJwPWRs19nBfzBp6Lc+XatWuDeSDp23k+FX3Kam96rQ1Rum1tfTeln9nlcW7TvOx6mOL+YKcurkNgGrr8jhl0H/ah3ojLg4x1qZyNW2bez8cXYzw4lYP1snUyreWfjc+OjH6ddu3aNbsA02VeNruNQDkC28gYxY0g7dce4lw5ffp0/qr/+nSeT0lfstrr3lvGRJDQjLgvp+d3VBDDPK5DYCwGlWFvI8PZli5raQpFAJw241y2LuXsXVhWi13OtH755Zc7tj+V/uwym9aer/IZVRnhdJ3bqrnf5Bj1SR/O86lJ93mXWe3yvWJKGfa2zvUpXV/RFL48g0b5nJrS/qCacwBoSpf3l0Fl2N955528RB3W7XMZweO6wXpYlmmNv1uMdLzqiK7bBMyrfEas56LWAF0F68uOEfRFXzL94ZNPPsl+9rOf5a8YovJsE+VzKu6XADBKfzcg3/nOd6I6Y7Z8/WWdvztMxXZ0eQjSdYj9+ezZs/xfqu3fv/9bv7Oq9Pficz799NO/O3jw4I73X3rppdnPXrp0acf75aXJYx/rUHxOsT7hxo0bO9ahDVX7e9kx6pt0/WlHus+7PF/S9ejaf/yP/7Hx9ehie7v4zC5cuHBhx7Y+ffo0/5dvlO+XTJNzAGjCRx991On9ZVBN4qO/cbG6A1rtSl02q4hMRHkqtmXrUNUccZ31Trd3ka6P6+XLl7Pz58/nr56vz7bbvq6q4/N1sN5KVr9umie2L93n5SbDbZrase9ie6ewj8v33/JAc4V0Xwz1fsn2pnbfAdqxaMDTNgx60DnmS5uZp4pm1uWp2Jb5T//pP+Wl5+KBaB3RJ3yZdf9mE86dO5eXnosv/3Kw3vR6RleF9PjEjWGoD5/pcS93pwBYJL6v0grU119/faVp3ATr0xSVOwBNSJ9hu5hOVMDeA4v6Sm8qgr579+69CDbjwSdGP49B+9I+0WGVAPTIkSN5abPsxbx+4/G3ohY8lr48ZC2qXIiB6Jpcz3jgSG8KEawPeZ7h9Ly5e/duXqIpcZ33gQdn6lAeZ+XOnTsrVf4yPeXKnfjuBGhCJ99DXwdKg/GdpA/70H19sF9sS5TrUtU3PN7bt2/fjvdi+TpYzn+L1Lw+9G3sr7Qf5tcPHPm7w5X2/f86eM/fpSnlfrxd9WEf23m8inS/x3nftLivp585NuV+68vuv+nPMj0HDhzYcQ5UjXMAsKn0/tKFwfRhj9rTH/7wh7GXZq8HstpzlftKRxb15MmT+avNVU27VmWTLDnNinM8nbYwsvlDzyZFdizOyWJ2gEePHmVfB3OzMvUr9+O9du3ajvfakn7mGM7jVZSnr4z7ax339HnK9/qhfyemooXG6dOnX2xTZEuX9RdMz7kx7QtWk45x5PkGqFvX3zGDCdjH+HBSfsCLB9ttLXs490XWXy+//PIsoC2M4RwPUQlRNNWOcy/OQZrRh6ClPEjYWM7jZcqVsHFPjwqTaNbdhPRYj+m+HveKdDrL6Le+SlN4Afu0jWlQYqB/uv6OGUwf9jRYH8sDf9qvu2p+8roJ1vttrPOtv/HGG3np+XzYjFs6X3ZX/Ugj6KsadLNJMWDlpUuX8lfP7+nvvPPObOyQutejqAArRCVJPEw08Vlt028dAHYaTIZ9rLXnddcKp1n7QgR/XTWNZXVFhm5sFSvx8L1v3778lexHk/pwn0zXoavm8EWLrLpaLq2jnGkPsR5xTW/TRD6C9PJ0j1W62Oa6xDam3YLWuReO9RmB1ciwA03q+jtGwN6xur9kyg+Lsur0gYfpdvRhP1uH+oL2VYP01FDv+bGtaVP4sOqxKwf67jHTI2AHmtT1c4Vp3UYmmmXGiVQsgnWYhghaeC7N6kfw3LbiPlxuIh/B9zpN1lcJ1iNAf/bs2aDv+VXBemzXqpoaJ4BhMI0kMHYCdqBxXQdQU9CHoKUvD85psJf2qW9bVb/2dEC+Zd5999289I1/8S/+RV56LgL0tOZ/iGKflIP16Ma1qjGOccPq4hqPyqpg/nVgjDSJ75hmXEzBmTNnsqtXr87KQ+5j22fpPTKClrYzreUs6SpTcTUlAuMYz6PQ9b213ER+m2k8xzhjSrp/Njl3x/p8wGrS49/VuBnAeMV3bnz3Frr4nhlEwD7maYIE7ExB3wKoMeo6aCkHkl0/OPctiKtrGs+uK2b6SMA+XcYvAJr205/+NPv5z38+Kx8+fDj7/PPPZ+U2DaJJfB+mCQI2J+MxfuVmyY75Tk1M4ylYZ+qMXwA07fbt23lp53d5mwaRYR9zc6c9e/a8yLREX8fo8whjJAvWrK73b9+Obx/PtzrWyXX0bfbJdKXHXosToAl9aA09uEHnxpa1iS+YQpeDI0HT0mv3/v37eYkxMEoz0DXBOjBWRonv2M9+9rO8VF8zSeij48eP5yWVU2Pz4Ycf5iXdlmjfphX50f/5lVdemWVpDx06tNaUewDQlt43iR/zgHMFzfmYgsiqv/rqq/kr53rduryPpM3F+tJtqY/31TrWKR28bszXUATTq8xDX6c4bzcdDJBueH4CmqZJ/AoMOAfjECNrMj4RWKXu3bs3y1bGg/SmyxizneX9tKliwJu0O9UYnT59utVgPWw61R4ANKn3GfZ4eCt8+eWXO6aGGot0G7eZnxf6Lj3XZUPq1dW+LU/nVpdts519O9fGOH96k8pz1zfJYGXDNIUWmED3ZNjX1Idmlk1Ityv98gHouydPnuSleo2l4jIy69FioDztHYvFjCnxYNTGIlgfJi0wgab1ZVBdg871QHl+XgPfMFZp5ZSR4sdh3pykEZRWBUerLmMJomKe6HLTbgEibCcqwtJKsI8//jgvAdQnKgbjmSR0WTE4qCbxz5492/F6TNKBhAx8w1i9+eab2e3bt2flGDX+l7/85Wiv6bb1rQl417reHxFQRD/sBw8e5O88p/k1bK/cxWTMz4dAd9L7SpeD6sqw90Q5yw5jdPbs2byUZXfv3s1LUL82vlQjKD969Ghlq6jIrJeD9ag4EKzD9nQxAdrWVbAeZNh7JM2yf/7550bVZpSmdE23Kd2PMuzfDFrWZEZ7nQH3ZNahPu53QBv6cq8RsPdIubnwnTt3ZmUYk7Ri6m/+5m92zM3O5jzAti89lxdxPKBe7ndAG/pyr9Ekvkc0F2YKojKq8OGHH+YlGJ55A+6lNNcFALYhw94zao1pWvS3jVEvyyNXd+ngwYOz4GcsU3l1wb0DmAr3O6ANfbnX9DrD3pe572DIIkCPeaDjphNL1TRTXYv1ifWK9Yt1NbUhAFVisEeAKel1hj0d0CfmvvvLv/zLHTUdY9SXmhyGJR5gTp061btAfFOmNlyfewcwBeXBHt3vgKb05dmq1xn29IZ848aN0QfrIZ0yIEY5hirlrPmxY8fWCtajAiwC4rj5dLGk5/k//+f/PC99Q9N4AKqY0g2Yml5n2KeYMTpz5kx29erVWVmWcdrq7GseAXpUenU5h2TKeV6/Kd4vgelxrwPa0pf7TW8D9ui/Hk18C1O5KccUQfv27XsxVdClS5eyc+fOzcqMWx3N2ocy13Oc3zElVsFD1/Y8xAJT4F4HtKUv95veNomPzGIhsoNTEdnGtIlXuh8Yj3KT9ljqaNY+hGA99CXTDwAAfdbbDHtaoxFByZQe8GUfx2mTDHrfmrLXqS+1lmNhfzJEXQyYGdNInj17Vv/ngXKvA9rSl/vNIAL2Kd6QfSGNwyb90IfSrH1bzvF62Z/0XZ3jcoydSoX53OuAtvTlftPrUeKnLM2oGi1+WCJjVDR3XzTn+byR2qcQrAPjld4D02XR/ZCdYj9Fy4PyPmxrieMXFSwAdE/A3lP6sQ9L+oC6rC96HNsIzG/duqUvNzB45QB93fE4QnFfbHqJSlLTRi4Xxy8qWIpjWiwCeYD2aRLfU/qxD8Mq/S8jk/7xxx/vOJ5ks/1RzIbw+eefZ4cPH56V2czU75k0Z5X73KrcD5eL+2Ls7z4Hxl012Z/qDEJAN/rybCXD3lORedUsvn/WySSlmXQPp992/PjxvKQVCfRBBIjp/W2V+9wiVVlz98Pl4rs/Bhst77u2lphOdpk4H+Y12W8yC59+V0TlD8AUyLD32JkzZ7KrV6/OyvEFHk35aFcE6KdPn84ePHiQv7NYPKDqg76a+/fvZ3/4h3/44vqe6nVeF/dMUhEwtT3AW9z/rl27tuNcZDwicXD+/Pn81XoiI3/hwoWtuyOk59bUZhAC2teXZ6teBuyPHz/ODhw4kL+a7sOnZvHd2KT5p0B9M3v27HlREaVZ/HbGGCTV9ZA/dm0F5wJyQhNN9le91vvy8AxMQ1/uOb1sEn/lypW8lE36Ab7cLD4yktRnm+af5aaegvXNaBZfnzFmmuI6rBr4apVlyINjlbveLFvqHH193uwVxX0uPo9pi3vNvCb7qzSnr1J1rQ/5GgaoUy8z7JFdjyx7uHPnzo6H+ql58803s9u3b8/KsR9if7C5TQdPkkFvRlRCvfrqq/krGZNtbNNclXGK4DsCK82G6VJT9ybfF0DT0krqLu85vQvYjQC6k4BmM+v2Pa8iSG9HX26G9IsKiPUIzhmqTa913xdA0/ryjNq7JvFGAN2p3CVA87Bvq2raHs3aVwnWlzX/BLpx7ty5yutylWXTZrl9U+56s2iJ0dcF6wxR1bW+7BqOawNgKnqXYU9rMowA+lw6XzX1kD3vj77UXgIAQKEvz6i9noddsP5cjJzKZuZlqATr/ZFe59E0EgAAeK7XATvPRXMxFpvXtH3sgfmy0aSHMMpu2rTRSPEAAPCNXjeJ79mqdcp+oSyC9ZhF4MmTJ/k71SKDXcx13kfR3SO6fRSc3wAAdK0v8ZeAfSDsF8rS6Q+X6fs54/wGAKBP+vJ8qkn8QKT9fGOqN6YtsutpsF7VV98YEAAAMGy9CthXzRZO0fHjx/OSfr5k2dtvv52Xnqvqq18MVmj6GwAAGKZeNYk/c+ZMdvXq1Vk55h///PPPZ2WeZ9VfffXV/JVmw1OXNtEZwxR1msQDANAnfXk+7VXAnvbJvXPnzo6sMoIavjG2c8G5DQBAnwjYK3hoX8z+oSBgBwCA5vTl+dSgc9CgefOkD2F+dAAAoFu9CdivX7+el5inLyPFRxB69OhRAecCRaB+7Nix7OHDh/m734j3Tp06lb8iPbcNPgkAAM/1JmBPRz4/ceJEXiLVl5HiY4Tye/fuCTgXiH1UFainvvrqq7zEkSNH8lKW3b17Ny8BAMC09SZgT7NqN27cyEukzp49m5e6DWqKYyXgrFaeIz2k86TXbQwtHd544428lGWffPJJXgIAgG70pXVzbwad60un/r7rYj9FABrZ9KqMcVSunDx5Mn9FSGc7COXjtHv37heVHZsew/RvxM3k6dOns/JQPXnyJNu3b1/+yj0AAIBuvfnmm9nt27dn5WjpHLOYdcGgcywUwXqcrPOad2sWv1OMxZAG65FZL7tw4cLs/y+//PLG2fHib4QI3IeeZd+7d29vajEBACBaNxfJ0i5bN8uwD0yb+ymCwDNnzsyyn/NEQPrRRx/lr76tyM6HCDLHno1Ps+sxFsOtW7dm5bLi57bJjpez7HEchrx/+1KLCQAAYdeuXS9irq5iVAH7wLSxn+Y1gS+C83XWIQ1gx9B0e5HYbzEqfCG2Nc0ap+o4jpcvX87Onz+fvxr+/o2s+quvvpq/ch8AAKBbfQjYe9Ek3pRu/TGvCfyyTPo8afPwcvY3PmvT6eGqfjfeq5rzfNlS15zoMTJ8al6wHutZh3PnzmWXLl3KXw1/EMDDhw/v2GfpuQMAAFPUiwz7qs2IaT7DXh4wLY5HDCyXBlLrrMOin92mWXj5d4uKhkXN9xfZZB1SUemU9uevquCIdaxqubDtcWz6nGhTtFAoKjRi/1WNAQAAAG2QYc+lAaIp3brzwQcf7DgWESxF5UkarK9jUSY5/q34rE0yw+nvRoY8Ar1Ng/WwbXY6nRc/KjmqgvV5LRf4hundAADgG73IsI8pQ9i0dKCxzz//fNaMuA6RIT59+vSL/b+opcOqx6ucrU9/dtG/rSJdh7J1mu/XVWuWrk/Rd31eRr2wznouMqbrx/RuAAD0hQz719KgjeVi9OxCmtXdRgSWMXhZcRK+/vrrtbR0SI9tmklOs+uFGECtDnUFwdsoWiTMC9ZjHWNfd72efRTTuwEAAM91nmGPacOuXr06K0e2OLLGzFf3SNpFU+20OXmRIZ5n1YzuvJ+L+ccfPXqUv3ouPi8C2FWmJYt1TkdjL2yyL5rIsBd/pzyKe2iiQmFMGfYwtu0BAGCY+pBh7zxgT5tGx7zLaQaZanUGNOWm6csCynKwvOjz561neuKnImhfZeC38jqHTQPhJgP2tgjYAQCgfmmsEC2QV0ku1q1XTeIF6+1bJ1gP5anL1lWePm3dacmir305WI+LqO6sdVOiwiMGyatrKjkAAKAZaavjdEaoNvVilHi6EcFj6tq1a3lpvnKwPE/V3PrxXgT8adY0nUs8KgyWKffbX+V35ilvfxti+6NfeyzbXvRF8A8AANTv/fffz0vbzyq1qc6bxGv+ur669lm5afmzZ892/O1UBIfrzCGe/u1ixPl1m99XSUfJD3Vu/zZ/a9Vjkv7cps34QxyPqnnnt9mGvnBPAACgL7p+NpVhn7By8LxIkRleVfq3o79HBJjpe9FXfZNg9cKFC3lpu+x6NEdfZ/vXMa+pe7nVwSbbX2TVq+adr3MbgO3EtfrKK6/MvuTTJe0OU/4ZXWUAgLJOM+wRMEWWsyCbtpp4sCtss89W+TvxQLloLvF5v5f+7U8//fRb2eAuj3UEzuXm6NuuT5r5nzd4XlWrg3XEsXjrrbeyL774In/nuW0y9X1U1/kNXSq34EnFPSIGWa1qJbPq4JsAQDvS5/x4Dm97GuJOM+xXrlzJS8+ndKN/1s2sVylng7vOBNfZD76QZv7jgq7KlKUP7+vOcx/Bejzcjz1YZ5ri/I5rZkwZ5nnBeogRZuPeWg7WQxejz9apOJZR8VYsWg4AMGRpnPqb3/wmL7Xo7zq0f//+SJ/Nljt37uTvskyxz7Y9fIv+zqeffvp3Bw8e3PEzsXwdIO54Pc9LL7204+eKJX7/2bNn+U91o7xOdSlvc7xOpf+2rvRaiSX241il+/Hzzz/P32VdN27cqLyG4734t67Nu8eUr5uhSrepSvrvY7qeDxw4sGPbiiWOax/OOwBY15/+6Z+++D67dOlS/m57Os2wpxkIU7p1K82GxBJZ8aoB5n70ox/lrxZLM86FIhscf3+Myts8L9O+iXILhTFn1dN7QbSGiPOO9RQzMlS1jon3upqWpFC0GKlav6FnmFcR258ay/Uc2zWvZUHcD7s+7wBgE3/wB3+Ql7Lst7/9bV5q0Sxs78DXDygvaio6XI1Bqmu/lTPCi5YiA1TO9A5Rut1NZLaq9ms5k7iuqM2L3xtTJm6eyKqn+6rrFhlDMi9rXbV0Ydn6jen8TrerrI/30Tg2hw4d2rgFRvz+3r17v7Vdxb0rfQ8AhiR9No3vybZ19u2ZPrCcOHEif5dVFPstlm2UH6SqlvQBulzJMtSH6zT4bSIYXGW/sli6rwTsqysHgrE8ffo0/9f67h2bqlq/sVZCpdtYDoDTf1tl+4uKjk2D6WXKwfYmzdfLxzbdrrQSEwCGKP2Oa1tn357pRqcPlCyX7rs2qWRZz7zAfawBSp3SB/y/+Zu/yd9lmfQ8i+XIkSP5vzyX/lubiuxt+vmx9PFaKILjYh03DZLTc7gcABfvx7JKhVTaLzz+Vp2qMuObfE76u+XjmlaSAsAQpd/rbY+x1IuAnfW0ve/KD7CxqGRZXTFQxfHjx+23FUWFUHGuxX5jubhOi31WLOWgK/23Raqu+XRZNYiNvxOVBuWAsM8VflXbvUmQXFVhV+y39L2PP/44/435du/e/eLn5wW9VccsXp87d+7F+8Xnp6paPRTLOhUV6e8BwNh0+WwqYB+guvdd8aBX9TAXqh7ooEnlfuwsNy/wSs17v2xREFcsqwSxVX8nvvC2qbgqKgHSe1XVe5uqCrQ3zQxX/a3Yb2ktfZSXrfeyDHVsf1WWvGr5+3//78/2VRrIF0v8/fK6rcKYNACMXZfPpp19s3a1wWNQ975LH6rLD2jxIJh+XiyaNdKG9JxjuXR/pUtq3vupqmt+3rLMJr+zSBqYxr0qXqdBZ7zXtzEPqoL2qvdimVdpukjsg3379lX+vaplz549le9HRUrsu/K6rSL9Dulz6wkA2Ma63491+U785+sPbV06tVdHqzBYde27mIInptlJp1b6Ohh/McVQMfVSOqWYY0Vb3CPWM2+6xHTfrbJPDxw4sGNqrq+DuB2/984772RfB5Wz8tcB5mw6w3lTsZXXKb2/bOLll1/OHj16lL+qVl7fvijv+8uXL2fnz5/P3/nGSy+9lD19+jR/tVz5eJX3cflzq/bN10H27JjGZ4fy7yyT/vyXX36Z7d69O38FAOOx7vdjXTqZhz3mCKZ7VfM0LwrW40EQGKby3N9VyvNoxzX/P/7H/8gOHTo0+5KKpQjWQzGne9WXVvnzIpDeJlgP8+b4LovPTte5WOK9mzdv5j9VLX736NGjS39uW+fOncsuXbqUv/pGzFe+jkXB+qpu3br1IljfVl1/BwDIff2g1TrN57ZT7LttDt+8pu7lJqbpv0Gb0vOPxaqu52IplPuTVyn/zCrNrePeUNUMvfy3qn5mHV8Hon/3ddC942+Wl/g+iSbli/pzL2s2X6x3/FxdysenyrJ/n2fR71V9bvo6lqp7e/rvy5Q/Y9vjDAB9lX7ftandT8ulG2vU7PWl+29TVQ/v8eBV9aArWKcL6TnIYuXrOV1COaiquqarfqaq8q5Ylt0Xyj+/TSA37970/e9/f8frn//850uD+lgWjcye/ty2Yr2rRskvK+/7dSz6vfJ5EZUe6et5VvmZQt0VMwDQV+n3XZva/bRcVxs7FnXsv/RvLFoE63QlMpzFeRgDYTFf+ZpNX1ctZVUBcUgHIFv3XpD+rVg2DeQWBetV76dLus7p+TQve75N4JyKvzOvsqO8H+ft+3h/lZHvy79XKG9LfG5VRW2qar2XSX82PkPADsBYpd95bWr307726NGjzjZ2LOrYf+nDa9Wy7sM51K2Yvz6WOpsnj1F67ZZfl5eqa7scyNVx/ad/L5ZNA7mq1gPz3k+XcuutVUY/XxbQrmreupX3awTI5S4Hxc8UfyPO/UVBe/q7qfI6xP4v3/fLDhw4sOPfV+mylv78ssoFABiy9DuvTe1+2tfSh/DDhw/n77KOOk6W8sNrugjW6YMIuNLzkvnK+yl9nS7zru1VfmZd6d+MZZOAvZwljqVYv/L76bLKdlZJ/32b/VBVIVr198pBdfoz6fuLKqzSnytUZddj/y9rMbF79+4X/x7B+ipd1qq2NbL0gncAxib9rmtT60/B6QPKnTt38ndZR1cnC7TNub6a8n4qv14m/fm6Aq30b8aybsAeQWe5qfi8gDb990Wfk/5slfTfN6lgKJQrRKuC46qgOrUsG15If6Y4duWKgFUV6121vvPMq/xdVMkAAEOUfs+1qfV52GNqnULLHz0a9iFT4VxfTbqfvg4Es2PHjuWvVttvMW/2ounEDi6Zb71Kuk5fB4DZtWvXdry3TNX84unfKK9zzF3+dZCYv6q27HxK//3rgH2t9V1VTBsXU+GVp9Qsr086T3ts+7zp2pYdu0W/W5d5c8q7ZgEYk/Q799KlS7MpWtsgYB8g+5ApiMBm3cBzqtJ7wv79+3cEuqvst3kBVyqC4QiKV5V+qW1y7MrBcvlvrBrQppatU/qZTQXs5YqIsE1QvezYtX3d7Nq168Vntv3ZANCkM2fOZFevXp2V130u2sau/P8Anbt582Z26NChWaCUBuusrpyVXkXUEEdN8SLrZNdDZOTDqutQlmbLq/5GrHMEhLGsGuwuW6dlGfo6PHnyJC89t02wHhYdu033/aaikg0Axir9vl3Uuq1uMuwDZB8yFvOaB1dxrs83LxPcVJa4DUXmeNuAdh3pZ67bhH9VXWxXG+JafvPNN3dUSLhmARibLuIwAfsA2YcM3TqBeuGLL77I9u7dm78iNS+wHHLAznBUBetjq5AAgNBFHKZJPNCKeKhPm7vPC9ZPnDgx6xMUN8HXXnstfzfLfvOb3+QloE+i8k2wDgDNaDVgv379el4CpqII1BcF6fGAHwF6LLdu3XrRlzgN2O/fv5+XgD55991385JgHYBxS8e7aevZtNWA/eLFi3npeRYNGJ80k74sm14E6vMe8P/gD/7gRdOj3/72t7P/s5rYt9CGTQYABIAhOn78eF7aGds2qdU+7Gmb/1XmzKVauh9bPHyw0Kr90tfJwEXN5R/+4R/OzvOYC/zBgwf5v5BK7wlBlhMAoH7xbPrqq6/mr9qJxToL2AWam7Mf6YtVg/SwaRC5Z8+eF/Ncfv7559nhw4dnZb5RDtjdFwAAmtF2LGbQOWAjEazHyNCr9EuPZdOM7+uvv56XqpsexXq88sors5tnsUST/JjTHQAAhkyGfYDsR+oSQW0EwatkyIcmutwUmfmxS+8JMT5IDNwHAED92o7FZNhhAsoDwRXL22+/PcpgPZw8eTIvjV86HsiNGzfyEgAAdUufuy5fvpyXmiNgh4GaF4RXLYtGah+LuprgD9GFCxdm/499YDBPAIDmxPNWIVqqNp1l1yR+gMa6H9cZwIzuRJPryOK2GRi6dwAA0AdfffVVtnv37vxVlj179mzHs2rdZNhpzbKM8BSywENWZLCjf7QsLgAAU9T2c7AM+wD1YT/KhvdPBNRjbQbu3gEAQF+kz6Yy7PRCOTveZDY8As848SMw69vy6aefZgcPHszXtFvRND1GQS/WbVGwXj5+UTbtGQAA9FtrGfYIGCLIK7T0saOU1uDUtR/j+Jw+fTp78OBB/k5zhpgJXnX6s75t26KWENGcZyjTnjVxzgMAwCbSZ9PRZNjfeeedvERfpFnXqEzZJFgv+jWvs/Q1WI+gfF4f+3nTn5W3v0/bFtvz5ptvzq1kmNK0ZwAAMEStBeyPHz/OS8+DHNozLxDdpFl7nwPUVc3bH+vMSV7sh75u/wcffDDbnidPnuTvPBfrXXQ3+NGPfpQdPXp0tj8AAID+aa1J/K5du2ZBQmjpI0crgstC1b5c1Ax6mQjohhiEhwg8V2m2vqkupjPbRATrsR9SVcf1wIEDs4q0ITSNX3bOAwBAW9Jn06abxAvYB6juE2LbIL3pQLlNQwnK5ykH66+//np2586db23P0MaUELADANAXbQbsRokfkKLP+SbKI4qny7rBerlJ+TpNyfti3v4Y8hzjqwbrIY4ZAADQb60E7BFosr11m7kX/aw3DUTr6OvdtkUVE+ky5MC8yjrBehjamBLpdqTrDgAAY9ZKwB4BXgRJbOfdd9/NS9+IYGvenOXLMufzAvJiWScwXzVQbnoZWyC+inWD9bIhjFlw5MiRvJRld+/ezUsAADBurQTsRoivx7lz52ZBaSqCrQiul4nRwiOwq6spezlAn2Kg3AfXr1/fKlgfijfeeCMvZdknn3ySl4A6pVN9jnmJbYwKawDYVPqsff/+/bzUjFYGnYsvyEILHzd66f789NNPs9OnT280h/oqIjAf8iBsYxYP1zHPejF12zrB+tCuydjGffv25a/cR2Adca9o8ntiiOI+GRXeJ0+ezN8BgNXFM/jt27dn5ePHj8+ewZsiYB+YePBKR/feloB8mMrBeogWD6sexyFek7t3786++uqrWfnRo0fZ/v37Z2XGbUyzUNAvcb/88ssvd9wPAWAVkVV/9dVX81fNPk8bJX5gYuC5TR08eHAWnMcJVSyasg9TdGdIg/XoajL246gf+/gsG0cjlj4PcjlWxYClRaVY3FvS740hL5cuXZptUygqAAFgXYcPH85LzROwD0zVwHOheMBatERzSM3/hi/6rZfHhRjCwHHb0o+9f1YJuBctgvF2rfI9EUtxPynuM2MKbGMsGAAYEk3iByYeoA4cOJC/sj+nJgKkM2fOvMiuR5eGaCWxriFek/qxdyO6X6w7pWTddN3pxli/u9PtillW0tcAsKq2vidl2AfmypUreandphh0LzLr77zzzo6m8BHETMXevXvzEnVYNTseY2Y0GayXZ5yoWnTdAQCmSsA+MMVohOHChQt5ia5E9vHo0aOz4KdJ8Tnnz5+fBS+FKfRbZzNxvrTVNzwC7hi4qxxkr7oIxqclzs1XXnml8pxctJiKDYCparxJfGQF04HSGv640YsHl4J92b3onhDdFCLgaGqKoHjA3WZE+CpDPY+c/4vFudJU8/WpjJXAN+q+3qruZeuo6z6bbpcm8QBsqq3n0sYz7DEdTyEyMQxDPFi1kTkeuuLBMwZl2mYE/0WmOCI8m1k3a75OdrzuYN09ZnrK97J11XWfTe+fly9fzksAsJ70+2Sb77dlGg/Y09Gsp9TfdujiwerevXuNBaFjkXZLaGIk5QhqpjgiPJspf1ksGxU8mqPH/PZdcI+ZnvK9rOqcrFrqnootPrvw4Ycf5iUAWE86nthvfvObvFS/xpvEa8Jar7b2p+O2uqb2VVXz0bqabw71+EZwWTywP3r06MU80TwX2cIY62AIFTvuMf1X9zHa5u/VuS5xD0krqpx/AGwiZm66evXqrByVy01NHdpohj36r0Pbqka/HuKARVVN4esw5OvyyJEjeSnL7t69m5coxBdFBB9aYcB8uhQBUIc/+IM/yEtZ9tvf/jYv1a/RgF3/ddoUGekIzKv68cbroTW9TYP1YrClNMu0qbQJ6NCuyzfeeCMvZdknn3ySlwAAoF1pk/j79+/npfo1GrCn/dU+/vjjvAT1K5qPLxpwq4kR3JuU9o+vc92HPK7E8ePHX2THov9zui18U2llCiwAgGalAXsTM/QUGu3DnmYDTZ1Sj3QfNtnvrq3PqUNVX+/IHEclURsDag1pX4Vdu3a9WM8hrG/ZsWPHZsc8RKuDuroKjEExzWCIio0YAb6v992hXTdTVPcx2ubvNbkuUXE5tApdAPqhjeeZxkeJhyZVBesRwHU5+jXN0ix+vrTFgQCEsSgq6OqU9mM3UwEAfSZgH5C2BgsbyqBk84J1A26NWzSLL0SzeKptM+ZBXFvpwI2a2FOHTQd7i3FJ6tb0lJwAUBcB+4C0NYhf24MFRpb0Zz/7Wf5qdVWjqAvWx2/v3r15iTqlQXp0O0j7Yg1x0Eb6pwiS1+3GkrYcqasLTFNT7wBA3fRhH4h4YIn+qYWnT59unK1YJj1OTX5OIYL1P//zP1+r30cEFxFUFLoM1tP91eDlVJuh92EPQ9vnbShfE8v2S/x8BOHrDJJS5752DPuvL8eoqfVwDgKwrTa+SxrLsBu9uV5XrlzJS89HJGw6iC608Tl/9md/tvYJXm4i2afMejoPvKbEtGXdZsNV0x+W1ZXNZPjcxwCgG40F7OUAk+3cvn07L+3sezdVTTSRrEME6WkgVDQl7kv2ZijjE7C+da+JeZWq8btxvsbyox/9aEfNMdOSVth21SUiWoIAwJQ1FrCXA0wPfdtJH67TQbdoN7ue9vMtlmX6NFp3jE9QVB60MT4B3Vh2TZQrbooA/dNPP52d48W5HU3si/OF6enDwGzrthwBgLFprA97Gsh44Ntem/tzCMeuq3WMYH2VPr8RDMfcvm11XVhVut/aGJ+gKTFlXxFAPHjwIDt48OCsPGXrXBPpfO0hfj4C9fKsC6m6x4kYwn2Gbo9TnJNNjlXiHARgW218lzSSYZ/X1JL+G2KT6Qii21rvd999Ny9Viws1lpgHvu/B8FCD9fDaa6/lJVO7baJ8j44vmwiM2grWNXNmFX0eqwQA2tJIwK7/+nC1PaXbptJgs+gn3sYAbzEVUBGUFwvt+8EPfpCXsuzXv/6141CzuL6ihUhxjtcdKGnmzDJRqZNWLK0yLgMAjFEjAbsB0oYrfUCKB/a+qjqvInCPQCCyhYsWI7cP35EjR/KSDHsTortBXEtNXSsCMRaJYP2tt97KXz0nuw7AVDXeJN4AacPV5ybTRaY7+mGvO6hbGtgL3ocpbRK/ypgCbKa4VuZdJxFYxb+VK8XWubYEYqTinIqxFL744ov8HZU6AExbI4POxcNaoYE/P0lt7dOhHrvLly9n58+fz1+tJyomIvDf1FD2WTwIpwM4Df3aTPf7s2fPdryeonXOw/K+Sn9+3rVUvk6KwGpev/cw79oayjVDu8eq6pyqe/yElPMQgG218V3S2LRu1Kc8QBTfVtW3vGq5dOlS/hvf6Gq6orat0m+4yJhqeTBdxbVUvlbS62SVYD30aUpD+q3tYB0AhkLAPgAG8atPGtgPTTzQvvLKK7OavFjWCapjFP1F/YaLQD0y8NEMOpYYyI/pKq6VtOY4zrd5gVX5mlo12CrOveK8Li8qj8av6pwKcd+qOicWLc4XAMZGk/gBiAeQop/unTt3Gh0XYErHrq5tTecEb3KfpedBG/qe3UqPnybx653P6c8uO8579ux50aw9mrjv3bv3W5U/165dm/3NVdYhgrO0a8Yq4nNjHWXs27fOebWpAwcO1NqSbNVuTum2xSCrzi8A1tXG96QMe8/FQ0wRpMWDskH8+qcYsT4ClyYtmwO+Tn0P1qlPBNuLvP/++3npebP4crAe50n6ZbXMKl0zyuJzo8VHkxVidGdZ14p1rRp4R2Bf0KIIgL4SsPfcb37zm7ykOXxfFU2Hmw5w0+b8VX3x6xABWBvbwnDEeTfPJufJvExqce6lS3qeT2WsiSmqmqaz6nxYdVn1vEw/1/kFQF9pEt9zH3zwQXbx4sVZ+U//9E+zn//857NyU6Zy7MrNcsd+nqbHdSzNx8e4TdtY59pdZ98tasJe/pxV1qH8WXWuK/Vb5ZgO2a5du15s1xi3D4BmtfE9KcPec//rf/2vvJRl/+yf/bO81Ix4MJ+KTZrlDlna9BNWEfeDGDdh3f7mAADUR8Dec/fu3ctLzTeJf+edd/LS+JX74Y7dtv3si+AtahHrWOoeyfmP//iPjQxdozjeMWp3eZDD8vmT7vMpVfgBALRFk/iea3Nfpk0D48F8rP2YI7AYa3P4CKCiC0Wbo8n3xaojQ4/VOveK9GfLzczjHDpz5sy3BgIr7gnprAiLzFuH9LNWuc8sWleal+7vMd0rC5rEA7CNNr4nZdipNOZgPTKHQ7Nqhjua+k8xWA8GjdpezHsd51DVHOvFPaFqgLCyciZ+nrHeZwAA6iJgZzKKYL0cjPTJvMA8WgT0IRAvgrdtliZHuGd9r7zyyovzrDy1VezT8rRvMWr8omMYvyMQHyfdTgCgfbU3iY8MTfrQV/Ofn5ToZ33gwIH8VbP7Mo7b6dOnX3zGGI9b7Mty3/UIRiJQ6UIE53Gt1B2InzhxIrtx48boB5pLj5um0jv3Rxz/RXNRr7KvontBE+dQ2qR+2X0mrpG0+4rj3L70eI2x24km8QBsI30uaep7pPYMezEFWYjAgc1duXIlLzU/4Fwct+IkG+Nxi8xQOViPLGBXD/9Ftn/dYD3WO47TouXWrVtGhZ+g9JiXM+XrivOsqXNo0QCI5RYmRqjvnrnKAaBbtWfY0wCoqQzNVKQZ4Tt37mTHjx+flZsw5uOWzmVfqPm0XyiCkGi98ODBg/yd5YoKBaqVM68ff/zx5KbqK7t8+XJ2/vz5/NXiczzNmnaRtY7jt27rkrgmumwRM2XpPm/z3tkGGXYAttHGd2SjfdgF69tJM8JNButlXR63yIQfPXp0676SERAUfXPLwXpVZq8psR2RSV8UrMf6xAWeLoL1+eLYlgcOjAqRqYu+5avadpq/bW0SrHfZIgYAoCuNZthr/tOT0+a+7MNxS8c/iEqDL774YqPKgyKgK09L9frrr89aKrRRIbFqBrEIRFhs2f78t//232a/+MUv8lfTNZT7b7k1QJnrol/G/L0uww7ANtr4jjRKfE+l2fWpSDPh0aJgk8C6yGiXg/Xol99GsB6BZfTBrRrVXSZ9PcW+jBvhslHyX3vttbzEEERrgPK1kC6uCwCA5wTsPdXmgHN9kQbZ0Sd5XVVzSEeAHiNmNzUQW1QQlAfJKgeWUVnw5ZdfCkJWtKjSIxVdJwp/9Vd/lZcobNutBACA7gnYe+r27dt5aecovWOW9qtdJ7guAryiOX0qBtaK9+se3bj4zKggWBRUxrZEZUEM8sVO5cqORZUehbSVwi9/+csX58m9e/cm2SqlLL1u4ryP/QQAQDPSZ6/79+/npXrVGrB7YK5PVwPOdaloJhuZ6AjcVhGB87Lp0TZtXl+WBpjLsr9FYCmr/lzavL1YllV2FNIgPd2fe/fuzY4cOZK/yrK7d+/mpekyBRdN03IDAL6Rxmnlga7rUmvAPsVm3E2Ipt1timBqiIpgvdxfPRXN0aNJ/KbSIH1egBmfEVPhFUHl2AP1quB72bKsgqPKKpUeb7zxRl7Ksk8++SQvTdc6I8XDqsotNwCA586ePTt71g1NJY9qHSW+zXnDxyzdjxEMRpPqJqWfF2o8JRqzSrAeAd8mgXME6VFDtmr2dwpZ9Njfi0Zp31RRobJpC4g4/vv27ctfGeU5FF8aoYs51hmfdeb4HxqjxAOwraa/S2oN2NMHQ198m0v3Y2Ru62jOvUj6eUMIQJcF600G6tsGmEMQ+zfmNV80d/ymmji/3Hd2SveHgJ26jPU6E7ADsK2mv0sMOtdzTQeGEZylNg2m4u8UzaTj/032c4xM76bBevzeBx98UNmke5Um75uMNp82q697ib9bRxeKdB2j+foqwXrs69gn6yx9rwwCAIA+kWHvoRhRvBgwqun9uE1z+EUZ6QhqI8htQrl55qKsd1NNuaeqjy0w0uvl0aNH2f79+2flqUrvwzLs1GWs3+9pViS+R06ePDkrA8CqZNgnJjLARfARo2A3LQ3WIxibpypLvGiU7yYfeorR5IulnPWOIP0f/sN/OFvHTQY747mqDHofM+RGiofmpffYqDQdi3S7DKgHQB8J2Hvmd7/7XV7Ksu9///t5qR3Xrl3LS98O0NedgqutwC5til8sEaT/3//7f/Of6Ie0WX1dS/y9OitGyus4lObrMVJ8HPdgpHhoRlqh29S0NV14//3385KpEAHoJ03ieyb6Ixe1/G00P06P2Sa6HIQtgvVlI8WnDh48OJunWpPHcYnj/93vfvfFPWfq9570mtYknrpEMBvdTwpjus48uwCwjT179rzoCnzp0qXap9mVYe+Z3//+93kpy773ve/lpeasE2hXZYk3GYRtExGU/Zt/82+yv/f3/t7s4SqWyKQvCtb/8T/+xzvWNwZSE6yPTxtdR2DquqiUBYAhaLoVmoC9Z9puEh8Z53nKAXpbwXnZv//3/z77B//gH2T/9b/+1+z//b//l79bLbLokfGP9f3f//t/e8gEAAAa87Of/SwvNdO9SpP4ntm3b9+LrPFUR7yO7b969Wr2n//zf165L3qXTfPpnrmUv5HehzWJp05j/Y737ALAtpr8LhGw90iM2B7TrBWmsA+L4PwXv/jFyqO5t9G3n2ERsH8jvQ8L2KnTWL/jPbsAsK0mv0s0ie+RK1eu5KUsO3z4cF4al/Lo89GiYN5c7mX/7t/9u9kFIFinLG1Zcf/+/bwEAADDJmDvkdu3b+elxX3LhyKy5x988MFG08MV0n70/+W//Jf8Xdjp+PHjeWlcU04BADBtmsT3yJD3X2TOV82ULxNN3mNO+HR/wCKRVX/11VfzV9O+/6TXjSbx1Ck9l2LMkLHMujHk714A+qHJ7xIBe08Muf96ZNHrymrqn86m3H+eS/eDgJ06xTzsxei30Q2lmHN26Nw7ANhWk98lmsT3RJ/7r1c1bU+XRcF6TLP205/+dPb/eSJIjxM7FsE6QD+lXbWamLYGAPg2GfaeiOx6ZNnDnTt3dvTJ7cq6zdxff/317Je//OUsC7Pq78qoUxf3n+fS/SDDTt3GeJ25dwCwrSa/S2TYe+DevXsvgvXIRPchWI+M+joDxMXgcP/yX/7L7J/8k38yO2EX/a6MOk1IR4q/fPlyXgIAgGY1+RwqYO+BTz75JC89D3zbUJ5erbyUm7lHRUIMMlQE2p9++umOZu4xwv2f/MmfLAzwi0BdkE4T4vwq1DWmAgAALNPkc6gm8T2QNof/67/+6+y1116bleu2yUju0cw9muintUbxd86cOTPr275IVD5EkJ/+LjQl+tRGd4zCVO9B6X1Yk3jqNsbvec8uAGyryedQAXsPNLXfPvvss+zUqVNrBeipH/zgB7Pf/du//dv8neUE6XTJPWjnPhCwU7cxXmPuGwDUoanvk9qaxF+/fj0v0YUIzstN3I8dO7YwWI/gOqbliRMqmrjH76d+/etfLw3W0/7osdy6dUuwDgAATEpT/dhry7CnzbojEIzAjW/bNuvdFzLp9JFM2c59IMNO3cZ4jblvAFCH6DJ89erVWTlipEiM1qG2gD39wouVE8hVSys2hiKy6AaKYwg8eO/cBwJ26jbGa8x9A4A6NNWPvZGA3RfefHEQ42D2leCcIXMf2rkPBOzUbYzXmPsGAHVp4jvFtG4tu3Dhwuz/Rd/v9KCWp0pbR7kv+aaLYJ0hS1v2DK0lCwAAw9ZEP3YZ9o7t2rXrxf6KYH3ZIHH6jcN8MdBijBMRovIpKrKmJr0Xy7BTtzF+13t+AaAuTfRjl2HvkXfffTcv7VRkz43ADou98cYbeSnLPvnkk7wEAADNu3TpUl563qe9DjLsHUsz7PYbbOfJkyezgR2LG+QXX3yR7d27d1aeChl2miTDDgCL1f29IsMOjEYE54cPH85fZYOfPhEAgGmrJWC/fv16XgLoVjpwo4AdAIAhqyVg//DDD/PS84HRWI1RrKF+AnYAAMailoA9DTxjFHNWc+XKlRf9GtJmvMDm/tE/+kd5Kcv+9m//Ni8BAMDw1N6H3Sjmq4lKjrQrQTE/O7AdGXYAAPrg5s2beWlzBp3rSGTXi5GsI7t+/PjxWRnYjoAdAICupAnsU6dObT1SvIC9I7dv385LsutQJwE7tKOOrAEAjE0a29UxF3st87CbS3x95n2F5sRc7MXYGlO7vtJ7i3nYqdvu3btfPHxEBuHp06ez8pD5PgagbnU+j8mwA6NmNgaoT91ZAwBgMQE7MDrprAt3797NS8C2zp07l5cAgDYI2IHReeONN/JSln3yySd5CQAAhkUf9o7oMwfNefLkyawfe9Fk94svvsj27t07K49dnX2moMrYvr98HwNQtzqfx2TYgdGJ4Py1117LX2XZb37zm7wEAADNSqd2u3z5cl7ajIC9A/fv389LzwMLoH5pP/b0mgMAgCa99957eSnLPvzww61acAnYO5Bm+44cOZKXgDr9s3/2z/JSlv32t7/V1BUAgFZcunQpL20/q4qAvQMRPBT+6I/+KC8BdZJhBwCgC2mT+G0J2Dvw2Wef5SUZdmjK97///RddTh4+fChoBwCgEzdv3sxL6xOwt+zevXvZ48ePZ+WDBw/uyAIC9UorxKL/EAAAtCHNsp8+fTovrU/A3rJ0TugTJ07kJaAJFy5cyEtZdvfu3bwEAADNSp9Dt+nHbh72lsXc0EWG/a//+q93TD0F1G9qcyzXOe8nVBnbNTW1ewQA7anjO0bA3jIPBtCuqV1z6fYK2GnC2K4p38sANKWO7xhN4oFRS/sPGXgOAIAhEbADo3b8+PG8lGUXL17MSwAA0H+axLdM0ztoV2TVX3311fzV+K+79B6jSTxNGNv3mO9lAJpSx3eMgL1lHgygfVO67tJtFbDThLFdT76XAWhKHd8xmsQDAABADwnYW5YOgAUAAADzCNhb9OTJkxeT5u/du3f2f6B5RooHAGCIBOwt+t3vfpeXsuz73/9+XgKaZqR4AACGSMDeojSzd/jw4bwENO3s2bN5Kcvu3r2blwAAoN8E7C36/e9/n5ey7Hvf+15eApo2pQqytPn/5cuX8xIAAG2r47lMwN4iTeKBpr333nt5Kcs+/PDDvAQAQNvS57JNu2Wah71F+/btmw08Fx49epTt379/Vgaat3v37heDPo75+ottjG0tuCdTN/OwA8Bq4rlsz549W8XKMuwtKoL1IFiHdh05ciQvjbsfu6kjAQD6oY7nMgF7Sx4/fpyXgC688cYbeSnLPvnkk7wEAAD9JWBvyZUrV/KSEeKhCzG1W1HLee/ePZVoAAD0noC9Jbdv385LWXbhwoW8BLRl7969k2kWDwDAOAjYW5Jm8yLTB7RPs3gAANqU9mPfpIWngB2YjLSyLJrFAwBAk7Zt4Slgb8H169fzEtClaBYPAABt+df/+l+/mEJ0kxae5mFvwYEDB140fzhx4kR269atWRlo3xTmYzevNE0yDzsArC6m9v7ud7+7cbwsw96CtK/CjRs38hLQBQPPAQDQlm1beArYW1bH5PnA5gw8BwDAUGgS3wLN7aA/ollSdFMZc7N49xyapEk8AKxnm3hZhh2YFPOxAwAwFAL2hqVTRx08eDAvAV3SLB4AgLak3aLv37+fl1YjYG9YGgzECPFA92I+9uLGGZVq0UweAACaEM+ehYsXL+al1QjYG5Y2t/3Rj36Ul4AuRbP41157LX+1syUMAADU6T/8h/+Ql9bvjilgb1g6pVsaIADd+sEPfpCXsuy///f/brApAAAacfjw4by0PgE7MEnpwHMy7DBdab/Cy5cv5yUA6AcBOzBJaYuXhw8f5iVgHTdv3sxLw/Xee+/lpfX7FQJA08zD3jDzu0J/7d69+8V87P/f//f/ZYcOHZqVh859hyal101kp58+fTorD1VsS2xTwTUDQBM2fT6TYQcmy8BzsL4LFy7kpefB7tClTeIBoG8E7MBkpQPP/c//+T/zErDIuXPn8hIA0DQBOzBZBp4DAKDPBOzAZBl4Digbw0B6AIyHQecaZvAn6LcxXqPuOzRtbOfY2AbSA6B/DDrXQ48fP85LAEBfjW0gPQDGQ8DeoL/4i7/IS1l2+PDhvAQA9ImB9ADoKwF7g27fvp2XdtbeAwAAwDL6sDfIfoH+04cd1ue6AYD16MMOsIEYYKpw+fLlvDRsY9wmAIApErADk/bee+/lpSy7ePFiXhq2MW4TAMAUaRLfIPsF+i9GhI4pnQpjuFbHuE30iybxALCezprEX79+PS8BDE/afHwsxrhNAABTtHXAHs0tixqCEydOzP6POdhhSNIA9/79+3kJmKqbN2/mJQDo1tYBexqY3rhxIy9x5cqVFxUZ5mCHfjt+/Hhe0ucbpiqtuDt16lReAoBu1TronGaY3zAHOwzH2bNnX/Qrunv3bvbw4cNZGZiO9Ls6xoEAgD7YetA5g7RUs19gWP74j/84+9WvfjUrR2uhkydPzspD5R5Ek8Z6frluAGhKDAhcVAh//vnnK7fCNq0bwNf+6I/+KC9l2a9//eu8BAAA29u0C6YMe0PsFxiWe/fuZUePHp2VDx48mD148GBWHir3IJokww4A64mBjV999dX81erfMzLsAF977bXXXozDEX3YL1++PCsDAMC2Nh2IXMAO8LUI1t977738ldHiAQDonibxDbFfYHhiIJAYEKQw5GvXPYgmaRIPAOvb5HtGhh0gZ2pKAAD6RMAOAFBy8+bNvAQA3dEkviH2CwzTWK5d9yCaNNbzK50jN1rcPH36dFYGgDps8v0pww4wcjKFsJoLFy7kpedjWgBA12TYG2K/wDClGbZHjx5l+/fvn5WHRqaQJo35O873NwBNkWEH2NKRI0fyUpbdvXs3Lw2PTCEAwPAJ2Bvw+PHjvAQMzRtvvJGXsuyTTz7JS8Nz7ty5HbW4AAB0K52R6P79+3lpMQF7A65cuZKXsuzw4cN5CRiC48eP56Usu3fvXl4CAIDtpM+ZFy9ezEuL6cPegAMHDrzIst+5c2fHgQH6byz3tV27dr1Yf/dn6jTm737PNQA0JbLqr776av5qte8ZAXsD7BMYtjEG7Ddu3MhOnjw5K8O2BOwAsJl1v2cE7A2wT2DYxnIN79mz58Xo8EaKp05j/p7zHQ5Ak9b9ntGHHaAkHRBkyINIvv/++3nJSPEAAEMkYAcoGcvUbjFSPAAAwyVgBygZy9RuAAAMmz7sDbBPYNiePHkym+2haEb++eefD3aKRvcjmrB79+4X18fYzivXDABN0ocdYEt79+7NXn/99fzV6vNkwlRcuHAhLwEATZJhb4B9AsO3yTyZfeR+BOtxzQDQJBl2gBoMtQk8UJ+bN2/mJQDohgx7A+wTGIcxXMvuR7CetH9+TPH45Zdf7riOAGAb6z6bybADAOTS/vlF4A4AXZFhb4B9AuMwhmvZ/QjWl143z5492/EaALax7rOZDDvAHNEctnD58uW8RBM+++yz7NChQ7MvMUt7S+xz/bQBoL9k2Btgn8A4nDlzJrt69eqsPNS+rENbX/rj4MGDs+bhJ0+ezN+ZjvS6kWEHoE7rxooy7ABzXLp0KS8Nty9r2koA1vHw4cPs7bffnj1YFMtUMvJa1wDQFwJ2gDnGEOymA2gNwXvvvTerbbY0v6QVUquqCuLLyxiC+jgPCx9++GFeAoD2aRLfAPsExiOd4un//J//kx04cGBWhjGLrPL58+fzV92JZvlnz57dEUC3Ia75uPYLvssBqMu6saIMO8ACR44cyUtZdvfu3bwE43bu3LnZQ0S6bJKR31Zk9E+dOvUie18skcW/fv16/lP105UEgL4QsAMs8MYbb+SlLPurv/qrvATTUxXEl5e2gvp5gXx5MQo+AEOnSXwD7BMYjydPnmT79u3LX7mmoS3RLD2C8iYC7lVGwPddDkAT1v1+EbA3wD6BcXFNQ380GcjP47oHoC7rPldqEg8ADEb0L79x48bsIWfR0kWfewCom4AdABideX3uBfIADImAvWaPHz/OS8BYpCNG379/Py8BQ7TK4HlPnz7NTpw4Mfv548ePz/4PAF0QsNfsypUreSnLDh8+nJeAIUsf2C9evJiXgLGKSrpbt27Ngvc7d+7k7wJA+ww6V7MDBw68yLL/8pe/zH784x/PysBwRVb91VdfzV+51wEAsJl142cBe83S/fHs2bMdr4Hhcq8DAGBb6z5TahIPAAAAPSRgBwAAgB4SsAMAAEAPCdgBAACghwTsACtI52IvZoIAAIAmCdgBVnDkyJG8lGV3797NSwAA0BwBO8AK3njjjRfTcHzyySez/wMAQJPMw16zdH+Yhx3G48mTJ9l3v/vdF/c59zsAANa1bvwsYK+ZgB3Ga9euXQJ2AAA2tm78rEk8AAAA9JCAHWBF6UjxDx8+zEsAANAMATvAil577bW8lGX37t3LSwAA0AwBO8CK/uiP/igvZdmvf/3rvAQAAM0QsAOsKJ2LXYYdAICmGSW+Zrt3786++uqrWdko8TAucW3HNV5wzwMAYB1Gie9QzNNcBOt79+6d/R8Yj3TQOQAAaJqAvUa/+93v8lKWff/7389LwJikQfv9+/fzEgAA1E/AXqP04f3w4cN5CRiT48eP56Usu3jxYl4CAID6Cdhr9Pvf/z4vZdn3vvc9/ddhhM6ePZuXsuzu3bt5CQAA6idgr5Em8TB+Ws8AANAWo8TXaN++fbOB58KjR4+y/fv3z8rAuLjvAQCwiXWfIwXsNbIvYBpc6wAAbGLd50hN4gHWZKR4AADaIGAHWJOR4gEAaIMm8TWyL2AaIqv+6quv5q9c7wAArGbdmFHAXiP7AqbD9Q4AwLrWfYbUJB4AAAB6SMAOAAAAPSRgr0k6UvTevXvzEgAAAGxGwF6Te/fu5aUsO3LkSF4CAACAzQjYa/LrX/86L2XZD37wg7wEAAAAmxGw10SGHQAAgDqZ1q0m9gNMi2seAIB1mdYNAAAYpc8++yw7dOjQLOixfHuJfXPz5s18bzEGMuw1sR9gWlzzAFCvCMZPnTqVPXz4MH+HTbz00kvZRx99lJ08eTJ/hz5Z9xlSwF4T+wGmxTUPAPWIQP306dPZgwcP8nfYVgTtT58+zV/RJ+s+Q2oSDwCMSjz8v/LKK7OHIstqSzSjPXPmTPb48eN8L0L95jVnP3bs2NrB+nvvvTcLdizfLJcuXcr3TpZ99dVXeYmhk2GvQXy5HThwIH8l2wZT4N4H/RXfyQLPeh08eDA7e/bsLEiCdWySPY/zLJp0sz7PJ/237jGSYa/BlStX8lKWHT58OC8BYxZNzQr379/PS0AfCNbrF32Ko29xPGhuskRW9fr16/lfY0xigLNFg8Ctkz0vsuaCdfiGgL0Gt2/fzktZduHChbwEjNnx48fzUpZdvHgxLwFdi2xeKh7+LcuXO3fuNJp0WBTwG9W6f+Y1Xa9a3n777bUHiZvXnF2gDt+2dZP43bt3v+gj8fnnn08ywxw3q8KWuxMYiMiqv/rqq/kr1z70Rbk5vGtze/GcF8G2oJptaObeDnFJ/617jLbOsMsyAVOk+wv0Uxqs629dj+gCdOPGjdmD5SZLjFRteqlxO3HixOw4Vx3/YhGsw2a2zrBHlukP//APZxdi2PLPDZKaLJgm1z70j+tyWC5fvpydP38+f0XfyIoPj3tg/617jLYO2MOuXbtefNgUTwwXBkyTax/6x3UJTJl7YP+te4wMOgcAAAA9JGAHAACAHhKwA2wonYs9+mECAECdBOwAG0pHoDZLBgAAdaslYJdlAqbo0qVLeen5PMUAAFCnWgJ2WSZgitLKSgAAqFst07pFZmn37t35q2lNIXDv3r3s6NGjs/LBgwezBw8ezMrANJg+BfrFNQlMmXtg/3UyrduUs0yffPJJXsqyEydO5CUAoGs3b97MSwAwTAad29Ldu3fzUpb96Ec/yksAQBfSJMKpU6fy0nR89tln2aFDh2YZHMu3l9g3KnKAIRGwb+nJkyd5Kctee+21vAQAdOHChQt56XmXvTEMhhsB5qpB+LFjx7KHDx/mv0lZ7Ju33367ct9VLQJ8oGu19GEPcVMrTKW/RATr+/btm5X37t2bffHFF7MyMB1TvPdB3505cya7evXqrBwZ96dPn87KfRfZ8WgVIODuvxi3KCqHTp48mb8D/eC5pP/WPUYy7Fv43e9+l5ey7Pvf/35eAgC6FFMuFg9EfZhycdVm6nVmx2MGn3gQtHyzpFNxbiuO05i7XJRbdWhpAN0RsG/h/v37eSnLDh8+nJcAgC71ZTDcIlCvIxCPgW2//PLLykC0avnoo4/y36Rw7ty5yn01b1kW4PehMqhuxTkb3QbSc3bsFRTQZwL2Lfz+97/PS1n2ve99Ly8BAGOTZsmrso1V/cw3DdSrsuO3bt3aMYUuzZsX4I9VnONvvvnm3HNW8//55rWiqbpXpIrfW/ZzTJs+7FuIL+K40MKnn36avf7667MyMB1TvPfBEOzatevFNXnjxo2tg40DBw5kjx8/zl89z+Lv379/rYA8AnGZ7+Eb432/CNbTwZSjVcfHH3+soqhC7K9Vx5uYN45G/I233nrrxRhYdY234bmk/9Y9RgL2LcSAc8WN7dGjR7MvbmBafDFCP+3Zs+fFw28dD8Lptb4ugfq4jOm+Py/w3PacXSegnYLiPFm0X+q6T3gu6b91j5Em8VtIayEF6wDQH++//35eaq+vcWQko2IgHsDSRbBOX73zzjtbBetVXUFimer0grHv4pqPlrdpULZsv6jUYxEZ9i1McZuBndwHoL/S63ObZvHXr1+fO+BWPGhfu3Ztx2cxbmO570e294c//KHvri3MC7SjEmPVCou6g3XPJf237jESsG/BBQG4D0B/Rd/bIru+TbP4tP96ZNFjADimayz3/XWCyk1NNXN8+fLl7Pz58/mrb2tyv3gu6b91j5GAfQsuCMB9APqr/NC86TWaXucR9EfwzzRFVjqaNReGfN9fFlSuKiqxogWL62KnqCxMB+xr61zxXNJ/6x4jAfsWXBCA+wD0W5plj3m1Y6qudYwpQGN75dkCnA8s0sUzgueSfit3sVrlGBl0DgAYrWh6Wrh48WJeWl0MygWFNFhPz60hisqoo0ePmv8bWpR+D0XrlFUI2AGA0YqsemGT0eKbDNDSEbbj/3UEThGEVY3aXedn8NzQ+2a//fbb2b179+YOqAjUL/1Oia4kq9AkfgtT3GZgJ/cB6L9trtNdu3a9+J1NrvEIoE+fPp09ePAgf2e+OuaLf/nll7NHjx7lr76tjs8IsV1V80kfPHgwu3DhwsYj8vfdWO75unq0o4vzxXNJv21yfGTYAQAqRFCzjfj9N998c6VgPUQLgBgIbBtp9qZKXYF01fzdId6Tse2/yK4DwyBgBwAmY50m4RHUbJqhKoL1J0+e5O9Uiz6M2/aznyfWvbzU0Yw7tm1RxcAmXQ9oT/n4Db0vPoydJvFb0OQEcB+A/tt0Pvb0+o6gZp1gtzya+KLfj3Xbs2fPi3vINveSbZvwL1NVEVF8TjFN2Lr7akjGcM830n17ujhfPJf02ybHR4YdABi16FNd2DT7u04AWpWBXvT7Q5q/OlodpMF6mp2NKfPiAXSswfpYrJNdTwdGLBaDF0K7ZNi3MMVtBnZyH4Bh2ORa3fT6Lmcww7Lfrysz3nSGPd0nY86kzzOGe366Dc+ePdvxOkSFU9WAgqm6Bi+sS6zzlStXsp/85CdLx2koti80PUBiF+fLGM7RMdvk+AjYt+CCANwHYBg2ekja8PpOf6+w7PeHGLA38ff7bujbH8FqOjp8GrAXQe/9+/eXjr3Qt8qaopJsWUVCbONbb72VffHFF7PXTVc8dHG+TP0a7btNjo8m8QAAMAGLRocv5mUvB+sxMGIEtRFcFEsE6xH8Vs35v6jJfPl3tmleH3/r6NGjs98vWrQs6vISPx/jLxTBeliUXd9k+6AJMuxbmOI2Azu5D8AwrHutxsP6pvNUp59VqPr9+Ix5c5lvOr+5DHuzhrz9169f3zHlXmTJr1279mKbqs7bqibzhaquH4V5meuq39k0y51m1dNA/caNG5XXSfmz57USiOvy9OnTC6djXHWduzhfhnyOTsEmx0fAvgUXBOA+AMOw7rVafrhf5/pOP6tQ/v0i27es6XFqlSBBwN6sIW9/ek5H1vzWrVuzcqF83pYD+lS5QqtK1Tk/73eKSqpVK6ZCul5p0D7vOkl/flGT/qpKhSqrHP8uzpcuPpPVbXJ8NIkHACgpZ+LqEkFLNKmNwGWdYD2sOziWZruk0nM6stDLRECbBhepctP6CDw+/fTT7JVXXpm9Ll8zRQXVPEWLkvh/2gogVVw7sU7l9Vo2E0S0LkjNC9bT5vVlURFw6dKlWbnOewIs9fUFVov4U8UyFVPcZmAn9wEYhnWv1XV/PpX+brocPHjw7/bu3fut979++P+7Z8+efet3C18HQrPfjffi/18HW/m/fNvu3btf/P7XAcbCn91E8bdjmaIhb/+ydU//Pc7JRap+dv/+/bPXcd6VHThw4Fu/k74uL2VxDezbt6/yZ2MJ5deF+N30ujtx4kT+Lzt9HcTv+BtVy7piXxS/+3Wwn7/brG3Wl2bFubjJ8dEkfgtT3GZgJ/cBGIZ1r9Vtru30d5eJTF2a7av63HIT3XlNfsPly5ez8+fP569Wa0a/jnT95vUVHrNtzosulfuvV637Otu27BxPfz8y4z/84Q9fvFec87t37547SFz585c1U4+fn7f+5d/98ssvZ59d9t3vfnfHgHRl5Wt1FWfOnMmuXr06K9d9Lc4z1HN0Csrn4qrHR5N4AICWxcN/PKytEgCUA5VFI2GfO3fuRbPdED9bZ9P4CDoK85ou0z8XL17MS8/7r7cpms+ngUlxzqfN2BeJgD+9BuLaieb3qyr/bnoOp+YF6+tcq2Xla5FpK5+Lq5Jh34IaLMB9AIZh3Wt1m2s7/d0q8aA27+F/2e8Wlq1Tmr2sM7NXzuBP7b43xHt+BLzpYG9xLlQFrets26LztHx+l382/dvzsuzpz1RlJaveq1r/VVoWFKq2adG1uqp19msd2v48VrfpsZFhBwBoWDycFcuiAGBe9m9dywbh2lRk8BmW8gBxdZ1jhZj6bdXzu6w4TxdlG6uykqtkKqOiIq1cWqdlQbFN2wbrUAcZ9i2owQLcB2AY1r1Wt7m2098trPo3yhnsQgQbt2/fzl99Y9E0WE3cn8rZ2qnd94Z4z0/XeVHGeJ1tS3920Vztofxv8/72vCkJq9ZrlffKWfh5LQsK6e8v26Z1VK1rk9r+PFa36bERsG/BBQG4D8AwrHutbnNtp79bqOP+sGfPnsqm7fOavNd9f4pgvTx3/NTue0O856+6zutsW/qzbQfs8yqNyj+Xvl6laXv68wJ26rZO94wyTeIBAAbg/fffz0s7VWXXI6ipS/ytqrnjFzVjhiYUlUbLrDrvOrTlww8/zEvrD/woYAcARm3d4LXOYLdO0X88sjLlpRyMrBrUlMXvHT16dMeo8sXfevjwYf7Oc6tkLOleOXBtwiuvvFLrTASLrFpptGnfdWhK2j0jpsRchybxW9DkBHAfgP5bd+7bTefKLaT3hUKb94fy+q8aXJd/b574e9euXavczrEb0j2/qGwpAtwIXG/dujUrV0lHbF+2beXR3aNbRpxjy8ZSCPP+dtrlI/2ZeSPJl8/reT+3rO96IV1PTeKp27wuH6uQYQcARq0cvC6z7s/3TTkDuWomPP29KvG34kEz/l5dwQzNeeedd3Yc02VZvVVGbC+U51CPQDlGo4+uE+VsexosL/rbRZeP8s+UPytUndfzfm6VYL2srRYDsJKvb7y1iD9VLFMxxW0GdnIfgH779NNP175O059/9uxZ/u7q0t+P5eugIf+Xdly6dGmjzy1+r2ppexv6Kt0nffed73yn8eNXdc58HSDn//rcpufjJtL1WffzYr2L3y2WgwcP/t2NGzfyn9hM+vfa0PbnsZr0elyXJvFb0OQEcB+AftukeXt6XW/SNLb883U2r6VbQ7rnb9MEdx3lqQi/DpRXbtXRJ/OmVIwMfdUsDKtq+5wZ0jk6JZrEA52L5mPRFC6+KOpaqprWAayji+btqzYBhjEoD4Y4xGA9xHZcunQpf/WNqn750CYZ9i1McZvh/v372S9+8Yvs7t273xo1uC8OHjyYnT17tpUHZfcB6LdNrtH0dzbJjheZuqFmGplvSPf8tjLsLNb2OTOkc3RKtrkeBexbcEEwFZHlvnjxYm8D9HniYTkGodm/f3/+Tv3cB6DfNrlG09/RnJ3UkO75AvbuxUj9MRVdoY3j4LmknzSJB2pT1bQ9Rn5dJViPKWOin1fciLZdqpqlrSvmn43+q+m2xLa1MS8t0L14WAboSjw/wbZk2LcwxW1mnNZp5h7Z6uPHj2dvvPFGduTIkfzd/oipZWLe2diWZepoOu8+AP216Xzq6XUtw05qSPd8GfbupedLW11kPJf0T1Qe//CHP9z4ehSwb8EFwVBt0sQ9sucxh+sm85l2IQL22MaojFhHBPHRjH7VQWbcB6C/Nn1YTn9PwE5qSPd8AXv3ujhfhnSOTsXLL7+cPXr0KH+1/nHRJB5GaNmI7cuauFc1bb9169ZggvUQrQA+//zzHdsQ27QsEI/9curUKc3mYWQM/saUVT0LxGI2lnFzbPth29lKZNi3MMVtpp+iqU0EmetkzFN9b+behGg6H/tsnS+zquy7+wD0U1S6xTVeWOf6TK9rGXZSQ7rn79mzZ6P5w9dtacZ8XZwvu3fvnj3jhEi0RGWlY9mtbVu7yLBvIc02xhQu0LQnT55kH3zwwbey5zEC6brBeppFj2Y6cUOfSrAe4vqNJv6x/cWybKC72MfROiHd90A/ffjhh3np+f0OqkSF96IWaeVlSN5///28tJ6q77pikZHvv6hsKRTJiU2CRPpDhn0LZ86cya5evTorx8P/JrWYsMym2fOh9Tnvi00y7wVfiNAfaUYjvp/XuRemzzQy7OOzbau0wtDv+ZFsOn/+fP5qetpoSVCOj4pzLzT52eVj6z7WrW0z7AL2LcSDfTQ7KUxlu2lOZNCjEihGbN/kQaKtEUinaNmDjX0P/bLNA5KAfXyiEnbdwVYXGes9f+pB/DLrBPkRnJfnYE9nrohKxC+//LKx+4v7WH8I2Ds21e1mO9s8OOhbBrBcXQF7lbgPbzslJO1YNZuu0nU5wXy94py7du1aY4F0+nc//vhjc8J3SMDeMQE7q9q2dr/pGzvAmGzzgJQO2sR4CdKnqw+VD03HDeXB53Td7c62AbtB52ALUXO/6mA1y6ZSK0TmpjwYWizxUBF/B4BmpYM2MR7lKUsF69N17ty5Hc9YqyzLBqZdRxutc9L7mArIYZNh39JUt3uKtu1fXmZQOIDmbJvRmGebgSnpjmw6UyRO6QdN4jvmQhiHugejmUeQDtCOpgJ2gKEQp/SDJvGwogjK5zVfX7W5+jxRcx8X4LLl1q1bgnUAAGAlAnZGYZW+5NsG5WFR/3IAAIDC9evX89LmBOwMyrzAPOa53DYYLw9GU7U8ePDAdGoAAPRe2qozRsanfdHlNmKIELHGJvRh39JUt7stq86fuip9yAGmQR92YOrOnDkzGzA5xLOvqd3al8aKsf83iUEE7FsSsNerjrnKNU8HQMAOTF3MahHzsRfcC9tXR6yoSXyNTPGy3P3792e1fdsO/jZvkDfBOgAA7GwST/uipXAdZNi3FLVWUXsVNDWZ7+7du7NAXeYcgDbIsANoDdylAwcOZI8fP85fybB35sKFC3npebOTqVlldPZYfvzjH68crFcN/iZYBwAAhiIN1iP5uCkZ9hpMbdsj8L53717261//epY5f/LkSf4vq4kT9o033siOHDmSvwMA9ZJhB5Bh71K67589e7bj9ToE7DVIm8VfunQpO3fu3Kw8VBGAx4iSv/jFLzZuwj5PBOvXrl3b+IQFgFUI2AEE7F0SsPfI0KZMqHuqtKCPOQB9ImAHELB3ScDeI+UpE8YuKiWiOfsPfvCD2f9fe+21/F8AoB/SgL3s4MGDszFoTp48mb8DME4C9u4I2HsmbRY/Bh5mABiyPXv21NrizfciMEQC9m5cv3591qK5sE3AbpT4mqSjxQ9FNGOPC7dqefDggYcSAAbr/fffz0v1iG5kb7/99uyBq7zEbCnxcAYA4eLFi3np+QxY25BhBwAm4/Lly9n58+fzV82TmQe6JEbrRrrfv/zyy626T8uwAwCTETO5xEPrOkvMALOpRZn5dIks/c2bN/PfAlhfDCwd95L03kL3YvyvbQjYAQAWWBTkRz/5CMi3tWpgv+2iYgD6ryrwXmU5duxY7VMys744fnUSsAMAbCgyJx9//HFlML9NZr4p61QM6JsP9VslGG8i8I6xq2hHHZW4KQE7AEADVm1+38fAPkTAEKMcVwUUfVlUKrCOaF2ySea6zqWNLHjVwNIfffRR/q807fHjx3mpnooSg84BAExA2wPu9U0MAHj27FmZxhGKrHVULo2tOXicq9euXdsRZ9F/dcfFAnYAAHb46quvZgGQ/u7rMStAs8YUmAvGx0vADgDA5KlUYBMxJ/aNGze2Hrkb5hGwAwDAGgT30xBZa3216ZqAHQAAembqYwS0SWBOnwnYAQAAoIfqjotN6wYAAAA9JGAHAACAHhKwAwAAQA8J2AEAAKCHBOwAAADQQwJ2AAAA2MJnn32WHTp0KH9VH9O6AQAAwIYiWH/zzTezJ0+e5O88Z1o3AAAA6NDbb7/9rWD9vffey0vbaT1gL5oKREa+j0us282bN/O1BQAAgGoR3z5+/Dh/9TxQj8z6Rx99lL+zndaaxMeGnDp1Knv48GH+zngdPHgwu3DhQnby5Mn8HQAAAMbm5Zdfzh49epS/qr97eGMZ9nIm/dixY5MI1kNsZzSLKLY9Fpl7AACAcSln1+vWSIY9MszLgvPYmLqaCdTl8uXL2fnz5/NX3Yh9d/bs2UYONgAAAPXZtWvXi6x63dn10EjAvkgfA/U6NRH0a2IPAADQP00H7LU1iX/ppZfy0k5Fp/tiGXOwHs6dO7dje2O5dOlS/q+bqWpiX16iyf3169fz3wAAAKBJbXR5ri1gjwxwqgjUxx6gr6IqiK9anj59unEWPYL6GNSvCN71lwcAAGhGJEsjqRpxXJNqaxJPM5ruV6+5PQAAwHyrzHjWVNfv1udhZz2rZOe3zcwva25fXmTwgaaUZxixVC+6QQFA84rnkmUznkU81lTLchn2kenDSPfBaPfQnPjyOH36dPbgwYP8HWiO+zkAY7dKBn2epjLrBQH7hPUluF+Vh0aaEi1GLl68uNFNGthJVysA+m7T5EfTwXkVTeInbNXB8NJl2xHvtxHBVDGw3rxFM9FxaLtZdHQLEaz3S3whVt2DLNt1g2pDXEtFVyv3ZACaEgmXTZ8Xo4n7OsF68VzSxYDqMuzU7quvvpoF1lPq5z6WjJJM87B0UcvLtDR1P5eFB2ATTT+r9vHZSsDOIEyxEoB2nThxIrtx40b20ksv5e8A69q0q5UAHoBt+pFvagjJDwE7oyGoH5+4iV67dm3WdAkYFvfkasZjAfjGtkH6FBIuAnbY0tAG71smbnwff/xxtnv37vwdgPqM7Z45dioYgG00kTWf2rOqgB0A6IwAftwE/DAtdfQxH0Iz9TYJ2AEAWqCbwE7GLoBhaiJrLkifT8AOAMC39LGCQcYe2lVXcC4g35yAHQCA2mlR0C2VG2xjm0DdzDv1ErADANAqYxcwBX3o9hGB9+nTp7MHDx7k79RH1rwdAnYAAHpPxh66E8G5qXa7IWAHAIARicqNyKpGs2TYhix69wTsAAAANepbtw+B93AJ2AEAAKCHduX/BwAAAHpEwA4AAAA9JGAHAACAHhKwAwAAQA8J2AEAAKCHBOwAAADQQwJ2AAAA6CEBOwAAAPSQgB0AAAB6J8v+f13EDxyG605EAAAAAElFTkSuQmCC;" vertex="1" parent="1">
                    <mxGeometry x="-704.12" y="271.25" width="588.23" height="477.5" as="geometry"/>
                </mxCell>
            </root>
        </mxGraphModel>
    </diagram>
</mxfile>